<?xml version="1.0" encoding="utf-8"?>
<!-- Generator: Adobe Illustrator 27.5.0, SVG Export Plug-In . SVG Version: 6.00 Build 0)  -->
<svg version="1.1" id="Layer_1" xmlns="http://www.w3.org/2000/svg" xmlns:xlink="http://www.w3.org/1999/xlink" x="0px" y="0px"
	 viewBox="0 0 2352.9 836.8" style="enable-background:new 0 0 2352.9 836.8;" xml:space="preserve">
<style type="text/css">
	.st0{fill-rule:evenodd;clip-rule:evenodd;fill:#345494;}
	.st1{fill-rule:evenodd;clip-rule:evenodd;fill:#FFFFFF;}
</style>
<g>
	<path class="st0" d="M0,836.8h2352.9V0H0V836.8z"/>
	<path class="st1" d="M238.1,266.1v-73.5h14c24.5,0,63-3.5,63,35c0,35-31.5,38.5-59.5,38.5L238.1,266.1L238.1,266.1L238.1,266.1z
		 M63,584.7h255.6c91,0,192.6-35,192.6-143.5c0-63-38.5-101.5-94.5-122.6v-3.5c45.5-14,70-59.5,70-105
		c0-119-101.5-143.6-203.1-143.6H63V584.7L63,584.7z M238.1,374.6h17.5c31.5,0,80.5,0,80.5,42c0,45.5-45.5,45.5-77,45.5h-21
		L238.1,374.6L238.1,374.6z M826.3,227.6c59.5,0,98,45.5,98,101.5c0,59.5-42,101.6-98,101.6s-98-42-98-101.6
		C728.3,273.1,766.8,227.6,826.3,227.6z M826.3,56c-157.6,0-287.1,108.5-287.1,269.6c0,168.1,129.6,269.6,287.1,269.6
		s287.1-101.5,287.1-269.6C1113.4,164.6,983.9,56,826.3,56z M1215,66.5H1411l73.5,273.1h3.5c3.5-24.5,7-49,14-70l56-203.1h196.1
		l84,518.2h-182.1l-28-283.6h-3.5c-3.5,17.5-7,35-10.5,52.5l-77,231.1h-108.5l-70-220.6c-3.5-21-10.5-42-10.5-63h-7
		c0,21,0,42-3.5,63l-21,220.6H1131L1215,66.5L1215,66.5z"/>
	<path class="st1" d="M1974.8,399.2l35-161.1h7c3.5,24.5,7,45.5,10.5,66.5l24.5,94.5H1974.8L1974.8,399.2z M1939.8,521.7h143.5
		l17.5,63h199.6L2114.8,66.5h-210.1l-178.6,518.2h199.6L1939.8,521.7L1939.8,521.7z M63,784.3h1015.4V661.8H63L63,784.3L63,784.3z
		 M1127.4,637.3h21v147.1h-21V637.3z M1201,707.3c7-10.5,17.5-17.5,31.5-17.5c31.5,0,38.5,17.5,38.5,42v52.5h-21v-52.5
		c0-14-3.5-24.5-24.5-24.5c-24.5,0-24.5,17.5-24.5,35v42h-21v-91h21V707.3L1201,707.3z M1320,784.3h-17.5v-73.5h-14v-17.5h14v-31.5
		h17.5v31.5h21v17.5h-21V784.3z M1376,728.3c3.5-10.5,14-21,31.5-21c14,0,24.5,7,28,21H1376L1376,728.3z M1456.6,742.3v-3.5
		c0-24.5-17.5-49-49-49c-35,0-52.5,21-52.5,49s21,49,52.5,49c19.3,0,37.5-9.1,49-24.5l-17.5-10.5c-7,14-17.5,17.5-31.5,17.5
		c-21,0-31.5-14-31.5-28L1456.6,742.3L1456.6,742.3z M1495.1,707.3c7-10.5,17.5-17.5,28-17.5c7,0,14,3.5,17.5,7l-7,14
		c-7-3.5-10.5-3.5-14-3.5c-21,0-24.5,17.5-24.5,31.5v45.5h-21v-91h21V707.3L1495.1,707.3z M1575.6,707.3c7-10.5,17.5-17.5,31.5-17.5
		c28,0,38.5,17.5,38.5,42v52.5h-21v-52.5c0-14-3.5-24.5-24.5-24.5c-24.5,0-24.5,17.5-24.5,35v42h-21v-91h21L1575.6,707.3
		L1575.6,707.3z M1719.2,770.3c-24.5,0-35-14-35-31.5s14-31.5,35-31.5c21,0,31.5,14,31.5,31.5S1740.2,770.3,1719.2,770.3z
		 M1771.7,693.3h-21v14c-7-10.5-21-17.5-35-17.5c-31.5,0-52.5,24.5-52.5,49c0,24.5,17.5,49,52.5,49c14,0,28-7,35-17.5v14h21V693.3
		L1771.7,693.3z M1820.7,784.3h-21v-73.5h-10.5v-17.5h10.5v-35h21v35h21v17.5h-21V784.3z M1855.8,693.3h21v91h-21V693.3z
		 M1880.2,651.3c0,7-7,14-14,14c-7,0-14-7-14-14c0-7,7-10.5,14-10.5C1873.2,640.8,1880.2,644.3,1880.2,651.3z M1957.3,707.3
		c17.5,0,35,14,35,31.5s-17.5,31.5-35,31.5c-21,0-38.5-14-38.5-31.5S1936.3,707.3,1957.3,707.3z M1957.3,689.8c-31.5,0-56,21-56,49
		s24.5,49,56,49s56-21,56-49S1988.8,689.8,1957.3,689.8z M2051.8,707.3c7-10.5,17.5-17.5,31.5-17.5c31.5,0,38.5,17.5,38.5,42v52.5
		h-21v-52.5c0-14-3.5-24.5-24.5-24.5c-24.5,0-24.5,17.5-24.5,35v42h-21v-91h21L2051.8,707.3L2051.8,707.3z M2195.4,770.3
		c-21,0-35-14-35-31.5s14-31.5,35-31.5c21,0,35,14,35,31.5S2216.4,770.3,2195.4,770.3z M2247.9,693.3h-21v14
		c-7-10.5-21-17.5-35-17.5c-31.5,0-52.5,24.5-52.5,49c0,24.5,21,49,52.5,49c14,0,28-7,35-17.5v14h21V693.3L2247.9,693.3z
		 M2275.9,616.2h21v168.1h-21V616.2z"/>
</g>
</svg>
