<svg height="700" viewBox="0 0 2250 700" width="2250" xmlns="http://www.w3.org/2000/svg"><g fill="#ee3123"><path d="m489.89 225.34c1.62 29.87-11.61 60.01-49.91 68.44-15.61 3.44-31.4 3.58-47.16 1.44-4.36-.59-6.83.6-8.92 4.23-6.41 11.11-5.28 22.69-2.41 34.39.67 2.71 1.7 5.32 2.78 8.65 20.45-15.89 41.35-23.97 65.02-6.39-6.71 14.89-13.3 29.52-20.06 44.52-6.82-4.62-13.7-8.16-21.86-7.75-2.14.11-4.31.4-6.37.95-8.29 2.22-9.64 3.82-8.75 12.22 1.34 12.68 1.47 25.29-1.48 37.73-6.42 27.09-24.22 42.48-50.88 47.95-8.55 1.76-17.43 1.92-27.27 2.93 1.21-2.18 1.64-3.2 2.28-4.06 12.23-16.5 14.97-34.6 10.16-54.43-3.75-15.48-7.12-31.1-9.63-46.82-3.63-22.75 1.32-43.98 13.74-63.42 3.03-4.74 6-9.52 9.48-15.05-27.16-5.57-50.88 1.86-75 15.69 2.2-9.41 3.63-17.67 6.08-25.61 5.87-19 15.6-35.36 33.95-44.97 14.93-7.81 31.14-10.13 47.52-7.96 20.56 2.71 41.01 6.49 61.34 10.63 26.95 5.49 52.27 2.94 75.58-12.6.39-.26.88-.36 1.78-.72z"/><path d="m1571.4 297.46c14.72-5.48 28.86-10.75 43.02-16.01 5.77-2.14 11.63-4.05 17.3-6.42 3.06-1.28 5.09-.89 7.51 1.42 5.34 5.1 9.03 11.04 10.91 18.15.29 1.09.76 2.13 1.31 3.64 4.86-1.72 9.52-3.33 14.16-5 13.15-4.72 26.31-9.4 39.42-14.21 18.69-6.86 34.63-1.32 45.05 15.7 6.84 11.17 9 23.51 9.09 36.34.1 14.66.4 29.34-.08 43.99-.49 14.86 2.54 27.29 20.12 33.03-9.32 3.38-17.02 6.17-24.72 8.97-11.57 4.2-23.16 8.31-34.67 12.66-2.8 1.06-4.86.68-7.32-.93-12.3-8.05-18.4-19.12-18.07-33.99.33-15.16.21-30.33.02-45.49-.11-9.17-1.88-17.91-8.93-24.64-3.48-3.32-7.13-4.96-12.14-2.86-4.73 1.98-9.87 2.96-14.69 4.76-1.35.5-3.15 2.33-3.15 3.55-.05 19.15.04 38.31.37 57.45.17 9.97 6.48 15.98 15.69 20.8-3.13 1.13-5.32 1.94-7.53 2.71-16.95 5.91-33.95 11.71-50.84 17.8-3.47 1.25-5.82.56-8.64-1.47-12.2-8.78-14.89-21.6-14.93-35.32-.05-18.65.49-37.3.61-55.95.03-4.48-.36-9-1.01-13.43-1.25-8.6-5.28-15.69-12.34-20.94-1.7-1.27-3.36-2.61-5.52-4.29z"/><path d="m1353.33 343.71c-.75-17.35 7.5-30.9 21.45-41.48 17.25-13.09 37.31-20.27 57.61-26.79 17.28-5.55 17.37-5.47 34.16 1.03 19.29 7.46 38.08 15.84 53.89 29.71 15.52 13.62 21.07 30.69 19.44 50.98-1.76 21.86-12.29 37.77-30.54 49.26-16.45 10.35-34.38 17.4-52.5 24.02-2.52.92-5.9.04-8.76-.56-20.93-4.41-41.23-10.61-59.45-22.23-23.56-15.03-35.26-36.11-35.3-63.93zm70.01-9.05c.97 5.54 1.39 11.25 3.03 16.59 4.83 15.8 13.08 29.13 29.03 36 7.64 3.29 8.67 2.71 11.74-4.93 10.84-26.99-4.54-62.85-31.57-73.93-3.12-1.28-4.47-.33-5.88 2.24-4.1 7.48-5.93 15.46-6.35 24.03z"/><path d="m1986.36 337.29c-30.11 13.72-59.58 27.14-89.57 40.8 5.13 7.13 12.16 9.87 19.69 11.12 21.04 3.5 40.98-.83 60.23-9.32.9-.4 1.76-.86 3.4-1.67-.41 1.19-.51 1.74-.78 2.2-7.94 13.28-15.86 26.57-23.92 39.78-.78 1.28-2.24 2.56-3.65 3-29.22 9.13-58.7 12.02-88.18 1.7-25.62-8.97-44.56-25.35-51.95-52.33-8.55-31.21 3.73-59.36 32.48-76.55 18.14-10.85 38.06-16.51 58.74-19.63 9.35-1.41 18.85-1.96 28.3-2.62 1.55-.11 3.24 1.11 4.79 1.87.54.27.86 1 1.28 1.51 16.22 19.84 32.43 39.69 49.15 60.14zm-73.91 2.25c-6.78-8.21-13.29-15.71-19.33-23.56-2.71-3.51-5.05-3.22-8.38-1.3-12.92 7.44-17.09 28.61-7.82 41.61 11.57-5.45 23.2-10.94 35.54-16.75z"/><path d="m979.65 336.56c-29.49 13.44-59.05 26.91-89.05 40.58 4.31 5.73 9.67 8.57 15.69 10.12 16.48 4.26 32.71 2.06 48.7-2.6 6.31-1.84 12.39-4.45 19.04-6.88-.91 1.66-1.62 3.07-2.43 4.42-6.23 10.43-12.79 20.68-18.61 31.33-3.27 5.98-7.52 9.22-14.19 10.92-28.34 7.21-56.53 9.04-84.37-1.62-21.05-8.06-37.42-21.67-46.13-42.99-10.73-26.28-6.01-60.05 22.79-80.3 17.94-12.62 38.19-19.4 59.49-23.07 11.44-1.97 23.1-2.69 34.68-3.71 1.5-.13 3.64.89 4.62 2.08 16.53 20.03 32.93 40.17 49.35 60.3.18.23.18.6.41 1.43zm-73.3 1.99c-6.94-8.4-13.43-15.97-19.55-23.8-2.39-3.05-4.46-3.05-7.59-1.38-13.27 7.11-17.7 27.83-8.51 41.96 11.6-5.46 23.25-10.94 35.65-16.78z"/><path d="m1013.95 391.77c6.23-5.59 11.93-10.94 17.96-15.9.96-.79 3.68-.37 5.04.43 14.22 8.32 28.25 16.97 42.54 25.16 2.99 1.71 6.86 2.79 10.27 2.68 5.25-.17 8.28-5.63 5.64-10.15-2.01-3.43-5.01-6.75-8.36-8.86-18.03-11.35-36.37-22.19-54.44-33.48-5.33-3.33-10.61-7.03-15.02-11.46-7.49-7.51-6.79-14.41 1.45-21.23 2.93-2.43 6.19-4.51 9.48-6.45 21.78-12.86 43.63-25.61 65.4-38.49 2.46-1.45 4.44-2.23 7.29-.62 23.9 13.5 47.9 26.86 71.85 40.26.7.39 1.34.89 2.61 1.74-5.89 5.37-11.39 10.59-17.2 15.45-.84.7-3.39.12-4.71-.63-13.02-7.41-25.93-15-38.91-22.46-1.7-.98-3.81-2.37-5.45-2.06-2.86.55-6.48 1.59-7.92 3.7-1.23 1.8-.61 5.79.59 8.07 1.3 2.46 4 4.44 6.48 5.99 18.77 11.73 37.65 23.3 56.46 34.96 2.26 1.4 4.49 2.89 6.53 4.58 10.73 8.91 11.14 19.97.98 29.47-2.4 2.25-5.18 4.22-8.06 5.82-22.42 12.41-44.87 24.75-67.43 36.89-1.81.98-5 1.27-6.69.33-24.84-13.87-49.54-28-74.26-42.08-.55-.32-1.02-.79-2.13-1.66z"/><path d="m613.65 294.82c18.2-6.76 35.31-13.11 52.42-19.46 1.09-.4 2.2-.77 3.29-1.18 10.06-3.75 10.39-4.02 17.07 4.3 3.98 4.95 6.71 10.9 10.29 16.89 1.36-.54 3.5-1.34 5.6-2.24 14.5-6.25 29.01-12.48 43.48-18.8 2.43-1.06 4-1.34 5.65 1.48 10.32 17.67 20.86 35.21 31.31 52.81.33.55.46 1.21.84 2.24-16.91 9.67-33.77 19.32-51.11 29.23-5.52-8.25-11.26-16.18-16.27-24.55-2.88-4.8-5.77-6.91-10.98-3.8-.7.42-1.55.64-2.36.78-4.47.76-6.04 3.12-5.99 7.86.12 11.47-.9 22.95-.66 34.41.28 13.16 5.27 23.95 18.06 29.77.45.21.89.45 2 1.01-20.13 7.44-39.27 14.57-58.49 21.5-1.4.51-3.55 0-4.97-.74-14.6-7.65-21.17-20.2-21.25-36.28-.1-19.15.2-38.29.23-57.44 0-4.32-.16-8.66-.63-12.96-1.19-10.93-7.48-18.56-17.53-24.83z"/><path d="m1328.82 315.11c-11.25 0-22.07.19-32.87-.09-4.42-.12-5.74 1.31-5.66 5.7.33 18.32.3 36.64.5 54.96.12 11.31 6.04 19.02 15.56 24.41 1.98 1.12 3.9 2.35 6.58 3.97-12.52 4.61-24.32 8.95-36.13 13.28-9.05 3.32-18.05 6.83-27.21 9.81-2.14.7-5.29.35-7.25-.79-11.84-6.88-17.35-17.92-17.71-31.11-.67-24.47-.59-48.96-.8-73.45-.06-6.68-.02-6.69-6.89-6.69-8.32 0-16.64 0-25.5-.98 32.64-24.09 65.28-48.19 98.97-73.06v37.18h38.4v36.87z"/><path d="m592.1 405.71c-20.74 7.29-40.96 14.45-61.23 21.41-1.42.49-3.55-.07-4.99-.83-14.6-7.67-21.15-20.27-21.25-36.34-.13-19.99.29-39.99.1-59.98-.05-5.75-.85-11.62-2.23-17.21-1.99-8.05-8.41-12.88-15.51-17.98 5.88-2.09 11.11-3.96 16.33-5.81 15.67-5.56 31.37-11.03 46.98-16.74 3.25-1.19 5.43-.74 8.03 1.55 10.08 8.84 14.61 20.17 14.75 33.2.21 19.49-.27 38.98-.14 58.47.04 5.78.61 11.67 1.85 17.3 2.02 9.21 4.72 12.31 17.3 22.94z"/></g></svg>