<?xml version="1.0" encoding="UTF-8"?><svg id="Layer_1" xmlns="http://www.w3.org/2000/svg" viewBox="0 0 167 167"><circle cx="83.5" cy="83.5" r="83.5" style="fill:#fff;"/><g style="opacity:.15;"><path d="m134.49,73.32h-4.19v-.22h-46.8v20.8h29.39c-5.73,16.26-23.56,24.8-39.83,19.07-16.26-5.73-24.8-23.56-19.07-39.83,5.73-16.26,23.56-24.8,39.83-19.07,3.83,1.35,7.35,3.43,10.38,6.13l14.71-14.71c-21.02-19.53-53.89-18.31-73.41,2.71-19.53,21.02-18.31,53.89,2.71,73.41,21.02,19.53,53.89,18.31,73.41-2.71,8.94-9.62,13.9-22.27,13.89-35.41,0-3.42-.34-6.83-1.01-10.18Z" style="fill:#ffc107;"/><path d="m37.5,59.3l17.09,12.53c6.41-15.96,24.55-23.69,40.5-17.28,3.34,1.34,6.43,3.26,9.12,5.66l14.71-14.71c-20.94-19.58-53.78-18.47-73.36,2.46-3.18,3.4-5.89,7.22-8.05,11.34Z" style="fill:#ff3d00;"/><path d="m83.5,135.5c12.9,0,25.33-4.81,34.86-13.5l-16.09-13.61c-5.4,4.1-11.99,6.32-18.77,6.32-13.16,0-24.9-8.27-29.34-20.66l-16.96,13.06c8.86,17.42,26.75,28.39,46.29,28.4Z" style="fill:#4caf50;"/><path d="m134.49,73.32h-4.19v-.22h-46.8v20.8h29.39c-2.05,5.76-5.74,10.8-10.63,14.49h0s16.09,13.62,16.09,13.62c-1.14,1.03,17.14-12.5,17.14-38.5,0-3.42-.34-6.83-1.01-10.18Z" style="fill:#1976d2;"/></g><g style="isolation:isolate;"><g style="isolation:isolate;"><path d="m15.98,111.2c-.26.3-.42.65-.47,1.04-.05.4,0,.82.17,1.27.28.78.77,1.31,1.45,1.6.68.28,1.45.27,2.31-.04.91-.33,1.53-.84,1.87-1.52.33-.68.34-1.45.03-2.32-.21-.59-.55-1.04-1-1.34-.45-.3-.99-.44-1.62-.42l1.11,3.06-1.78.65-1.91-5.25,2.24-.82c.67-.04,1.34.06,2.01.3.67.24,1.29.63,1.85,1.17.56.54.99,1.23,1.29,2.05.36.98.46,1.93.31,2.85-.15.92-.53,1.73-1.13,2.44-.61.71-1.4,1.23-2.37,1.59-.98.36-1.93.46-2.85.31-.92-.15-1.73-.53-2.44-1.13-.7-.61-1.23-1.4-1.59-2.38-.43-1.18-.51-2.29-.23-3.31.28-1.02.88-1.85,1.8-2.48l.97,2.67Z" style="fill:#021d49;"/></g></g><g style="isolation:isolate;"><g style="isolation:isolate;"><path d="m19.55,98.72c-.35.88-.91,1.6-1.67,2.19-.76.58-1.65.94-2.67,1.06s-1.97,0-2.84-.38c-.87-.38-1.59-.95-2.15-1.71-.56-.76-.9-1.63-1.02-2.62s0-1.91.35-2.79c.36-.88.91-1.6,1.67-2.17.76-.57,1.65-.92,2.67-1.05,1.02-.13,1.97,0,2.85.37.88.38,1.6.94,2.15,1.7.56.76.9,1.63,1.02,2.61.12.98,0,1.91-.35,2.79Zm-3.05-4.4c-.62-.43-1.38-.59-2.3-.48-.92.11-1.63.46-2.12,1.02-.49.57-.68,1.27-.58,2.11.1.84.46,1.48,1.07,1.92.61.43,1.38.59,2.31.48.92-.11,1.63-.46,2.12-1.03.49-.57.68-1.28.58-2.12-.1-.83-.46-1.47-1.08-1.9Z" style="fill:#021d49;"/></g></g><g style="isolation:isolate;"><g style="isolation:isolate;"><path d="m18.66,83.11c-.54.77-1.25,1.36-2.12,1.75-.87.4-1.82.54-2.84.43-1.03-.11-1.92-.44-2.68-1.01-.76-.57-1.33-1.29-1.71-2.15-.37-.87-.5-1.79-.4-2.78.1-.98.43-1.86.97-2.64.54-.77,1.25-1.35,2.11-1.74.87-.39,1.81-.53,2.83-.42,1.02.11,1.92.44,2.69,1.01.77.56,1.34,1.28,1.71,2.14.37.86.51,1.79.4,2.77-.1.98-.43,1.86-.97,2.64Zm-1.98-4.97c-.5-.56-1.21-.89-2.13-.98-.92-.1-1.69.08-2.29.52-.6.44-.95,1.08-1.04,1.92-.09.85.11,1.55.61,2.11.5.56,1.21.89,2.14.99.92.1,1.69-.08,2.29-.52.6-.44.95-1.09,1.04-1.93.09-.84-.12-1.53-.63-2.09Z" style="fill:#021d49;"/></g></g><g style="isolation:isolate;"><g style="isolation:isolate;"><path d="m16.62,61.04c-.39.07-.73.24-1.02.51-.29.28-.51.64-.67,1.09-.27.79-.23,1.5.12,2.15.35.65.96,1.12,1.82,1.42.92.31,1.72.31,2.41,0,.69-.32,1.18-.91,1.48-1.78.2-.6.23-1.15.07-1.67-.16-.52-.49-.96-1-1.35l-1.06,3.08-1.79-.61,1.81-5.28,2.26.77c.54.39,1,.89,1.38,1.49.37.61.61,1.3.7,2.07.09.77,0,1.58-.29,2.41-.34.98-.85,1.79-1.55,2.41s-1.5,1.02-2.41,1.19c-.91.17-1.86.08-2.85-.26-.98-.34-1.79-.85-2.41-1.55-.62-.69-1.02-1.5-1.19-2.41-.17-.91-.08-1.86.26-2.85.41-1.19,1.04-2.1,1.9-2.72.86-.62,1.84-.89,2.96-.8l-.92,2.68Z" style="fill:#021d49;"/></g></g><g style="isolation:isolate;"><g style="isolation:isolate;"><path d="m26.26,52.65l1.67-2.91,1.72.99-2.95,5.14-9.13-5.24,1.28-2.22,7.42,4.26Z" style="fill:#021d49;"/></g></g><g style="isolation:isolate;"><g style="isolation:isolate;"><path d="m27.3,39.53l1.65,1.35,2.17-2.66,1.53,1.25-2.17,2.66,1.79,1.46,2.46-3.01,1.59,1.3-4.08,4.99-8.15-6.67,4.08-4.99,1.59,1.3-2.46,3.01Z" style="fill:#021d49;"/></g></g><g style="isolation:isolate;"><g style="isolation:isolate;"><path d="m48.97,30.85l-4.07-2-.5.35,2.28,3.26-2.1,1.47-6.04-8.62,3.53-2.47c.68-.48,1.34-.76,1.99-.86.65-.1,1.23-.02,1.76.22.53.25.97.62,1.33,1.13.4.57.6,1.2.59,1.88,0,.68-.26,1.33-.76,1.96l4.38,2.02-2.37,1.66Zm-5.62-3.13l1.3-.91c.38-.27.61-.57.67-.89.06-.32-.03-.66-.27-1-.23-.33-.51-.52-.83-.57s-.68.05-1.06.32l-1.3.91,1.5,2.14Z" style="fill:#021d49;"/></g></g><g style="isolation:isolate;"><g style="isolation:isolate;"><path d="m61.07,22.31l-3.62,1.54.15,1.96-2.47,1.05-.61-11.18,2.73-1.16,7.62,8.2-2.5,1.06-1.31-1.46Zm-1.38-1.56l-2.71-3.04.32,4.05,2.39-1.01Z" style="fill:#021d49;"/></g></g><g style="isolation:isolate;"><g style="isolation:isolate;"><path d="m74.87,9.5l.41,2.01-2.73.56,1.7,8.3-2.51.51-1.69-8.3-2.73.56-.41-2.01,7.98-1.63Z" style="fill:#021d49;"/></g></g><g style="isolation:isolate;"><g style="isolation:isolate;"><path d="m83.82,8.7l.58,10.51-2.56.14-.58-10.51,2.56-.14Z" style="fill:#021d49;"/></g></g><g style="isolation:isolate;"><g style="isolation:isolate;"><path d="m98.77,20.05l-2.55-.28-3.54-6.93-.72,6.46-2.55-.28,1.17-10.46,2.55.28,3.54,6.96.72-6.49,2.55.28-1.17,10.46Z" style="fill:#021d49;"/></g></g><g style="isolation:isolate;"><g style="isolation:isolate;"><path d="m113.24,16.64c-.07-.39-.24-.73-.51-1.03-.27-.29-.64-.51-1.09-.67-.78-.27-1.5-.23-2.15.12s-1.12.96-1.42,1.82c-.32.92-.32,1.72,0,2.41.32.69.91,1.18,1.78,1.48.59.21,1.15.23,1.67.07.52-.16.97-.49,1.35-.99l-3.08-1.06.62-1.79,5.27,1.83-.78,2.25c-.39.54-.89,1-1.5,1.37s-1.3.6-2.07.7c-.77.09-1.58,0-2.41-.29-.98-.34-1.79-.86-2.41-1.56-.62-.7-1.01-1.5-1.18-2.42-.17-.92-.08-1.86.26-2.85.34-.98.86-1.79,1.55-2.41.7-.62,1.5-1.01,2.42-1.18.91-.17,1.86-.08,2.84.26,1.19.41,2.1,1.05,2.71,1.91.62.86.88,1.85.79,2.96l-2.68-.93Z" style="fill:#021d49;"/></g></g><g style="isolation:isolate;"><g style="isolation:isolate;"><path d="m151.45,56.13c.26-.3.42-.65.47-1.04.05-.4,0-.82-.17-1.27-.28-.78-.77-1.31-1.45-1.6-.68-.28-1.45-.27-2.31.04-.91.33-1.54.84-1.87,1.52-.33.68-.34,1.45-.03,2.32.22.59.55,1.04,1,1.34.45.3.99.44,1.62.42l-1.11-3.06,1.78-.65,1.91,5.25-2.24.82c-.67.04-1.34-.06-2.01-.3-.67-.24-1.29-.63-1.85-1.17-.56-.54-.99-1.23-1.29-2.05-.36-.98-.46-1.93-.31-2.85s.53-1.74,1.13-2.44c.61-.7,1.4-1.23,2.38-1.59.98-.36,1.93-.46,2.85-.31.92.15,1.73.53,2.44,1.13.7.6,1.24,1.4,1.59,2.38.43,1.18.51,2.29.23,3.31-.28,1.02-.88,1.85-1.8,2.48l-.97-2.67Z" style="fill:#021d49;"/></g></g><g style="isolation:isolate;"><g style="isolation:isolate;"><path d="m147.88,68.61c.35-.88.91-1.6,1.67-2.19.76-.58,1.65-.94,2.67-1.06s1.97,0,2.84.38c.87.38,1.59.95,2.15,1.71s.9,1.63,1.02,2.62c.12.98,0,1.91-.35,2.79-.36.88-.91,1.6-1.67,2.17-.76.57-1.64.92-2.67,1.05-1.02.13-1.97,0-2.85-.37s-1.6-.94-2.15-1.7c-.56-.76-.9-1.63-1.02-2.61-.12-.98,0-1.91.35-2.79Zm3.05,4.4c.62.43,1.38.59,2.3.48.92-.11,1.63-.46,2.12-1.02.49-.57.68-1.27.58-2.11-.11-.84-.46-1.48-1.07-1.92-.61-.43-1.38-.59-2.31-.48-.92.11-1.63.46-2.12,1.03-.49.57-.68,1.28-.58,2.12.1.83.46,1.47,1.08,1.9Z" style="fill:#021d49;"/></g></g><g style="isolation:isolate;"><g style="isolation:isolate;"><path d="m148.77,84.22c.54-.77,1.25-1.36,2.12-1.75.87-.4,1.82-.54,2.84-.43,1.03.11,1.92.44,2.68,1.01.76.57,1.33,1.29,1.71,2.15s.5,1.79.4,2.78-.43,1.86-.97,2.64c-.54.77-1.25,1.35-2.11,1.74-.87.39-1.81.53-2.83.42-1.02-.11-1.92-.44-2.69-1.01-.77-.56-1.34-1.28-1.71-2.14-.37-.86-.51-1.79-.4-2.77s.43-1.86.97-2.63Zm1.98,4.97c.5.56,1.21.89,2.13.98.92.1,1.69-.08,2.29-.52s.95-1.08,1.04-1.92c.09-.84-.11-1.55-.61-2.11-.5-.56-1.21-.89-2.14-.99-.92-.1-1.69.08-2.29.52s-.95,1.09-1.04,1.93c-.09.84.12,1.53.63,2.09Z" style="fill:#021d49;"/></g></g><g style="isolation:isolate;"><g style="isolation:isolate;"><path d="m150.81,106.29c.39-.07.73-.24,1.02-.51.29-.28.51-.64.67-1.09.27-.79.23-1.5-.12-2.15-.35-.65-.96-1.12-1.82-1.42-.92-.32-1.72-.31-2.41,0-.69.32-1.18.91-1.48,1.79-.2.6-.23,1.15-.07,1.67.16.52.49.96,1,1.35l1.06-3.08,1.79.61-1.81,5.28-2.26-.77c-.54-.39-1-.89-1.38-1.5-.37-.61-.61-1.3-.7-2.07-.09-.77,0-1.57.29-2.41.34-.98.85-1.79,1.55-2.41s1.5-1.02,2.41-1.19c.91-.17,1.86-.08,2.85.25.98.34,1.79.85,2.41,1.55.62.69,1.02,1.5,1.19,2.41.17.91.08,1.86-.26,2.85-.41,1.19-1.04,2.1-1.9,2.72-.86.62-1.84.89-2.96.8l.92-2.68Z" style="fill:#021d49;"/></g></g><g style="isolation:isolate;"><g style="isolation:isolate;"><path d="m141.18,114.68l-1.67,2.91-1.72-.99,2.95-5.14,9.13,5.24-1.28,2.22-7.42-4.26Z" style="fill:#021d49;"/></g></g><g style="isolation:isolate;"><g style="isolation:isolate;"><path d="m140.13,127.81l-1.65-1.35-2.17,2.66-1.53-1.25,2.17-2.66-1.79-1.46-2.46,3.01-1.59-1.3,4.08-4.99,8.15,6.67-4.08,4.99-1.59-1.3,2.46-3.01Z" style="fill:#021d49;"/></g></g><g style="isolation:isolate;"><g style="isolation:isolate;"><path d="m118.46,136.48l4.08,2,.5-.35-2.28-3.26,2.1-1.47,6.04,8.62-3.53,2.47c-.68.48-1.34.76-1.99.86-.65.1-1.23.02-1.76-.22-.53-.25-.97-.62-1.32-1.13-.4-.57-.6-1.2-.59-1.88,0-.68.26-1.33.76-1.96l-4.38-2.02,2.37-1.66Zm5.62,3.13l-1.3.91c-.38.27-.61.57-.67.89-.06.32.03.66.27,1,.23.33.51.52.83.57.33.05.68-.05,1.06-.33l1.3-.91-1.5-2.14Z" style="fill:#021d49;"/></g></g><g style="isolation:isolate;"><g style="isolation:isolate;"><path d="m106.37,145.03l3.62-1.54-.15-1.96,2.47-1.05.62,11.18-2.73,1.16-7.63-8.2,2.5-1.06,1.31,1.46Zm1.38,1.56l2.71,3.04-.32-4.05-2.39,1.02Z" style="fill:#021d49;"/></g></g><g style="isolation:isolate;"><g style="isolation:isolate;"><path d="m92.56,157.83l-.41-2.01,2.73-.56-1.7-8.3,2.51-.51,1.7,8.3,2.73-.56.41,2.01-7.98,1.63Z" style="fill:#021d49;"/></g></g><g style="isolation:isolate;"><g style="isolation:isolate;"><path d="m83.61,158.64l-.58-10.51,2.56-.14.58,10.51-2.56.14Z" style="fill:#021d49;"/></g></g><g style="isolation:isolate;"><g style="isolation:isolate;"><path d="m68.66,147.29l2.55.29,3.54,6.93.72-6.46,2.55.28-1.17,10.46-2.55-.28-3.54-6.96-.72,6.49-2.55-.29,1.17-10.46Z" style="fill:#021d49;"/></g></g><g style="isolation:isolate;"><g style="isolation:isolate;"><path d="m54.2,150.7c.07.39.24.73.51,1.03.28.29.64.52,1.09.67.78.27,1.5.23,2.15-.12.65-.35,1.12-.96,1.42-1.82.32-.92.32-1.72,0-2.41s-.91-1.18-1.78-1.48c-.6-.21-1.15-.23-1.67-.07-.52.16-.97.49-1.35.99l3.08,1.07-.62,1.79-5.27-1.83.78-2.25c.39-.54.89-1,1.5-1.37.61-.37,1.3-.6,2.07-.69.77-.09,1.58,0,2.41.29.98.34,1.79.86,2.41,1.56.62.7,1.01,1.5,1.18,2.42.17.91.08,1.86-.26,2.85-.34.98-.86,1.78-1.56,2.41-.7.62-1.5,1.01-2.42,1.18-.91.17-1.86.08-2.85-.26-1.19-.41-2.09-1.05-2.71-1.91-.62-.86-.88-1.84-.79-2.96l2.68.93Z" style="fill:#021d49;"/></g></g><g style="isolation:isolate;"><g style="isolation:isolate;"><path d="m46.55,95v-8.1l15.35-21.9h10.75v21.5h3.85v8.5h-3.85v6h-9.9v-6h-16.2Zm16.95-18.95l-6.9,10.45h6.9v-10.45Z" style="fill:#f32735;"/><path d="m81.92,99.97c-1.05-.95-1.58-2.16-1.58-3.62s.53-2.68,1.58-3.65,2.44-1.45,4.17-1.45,3.08.48,4.12,1.45c1.05.97,1.58,2.18,1.58,3.65s-.52,2.63-1.58,3.6c-1.05.97-2.42,1.45-4.12,1.45s-3.12-.48-4.17-1.43Z" style="fill:#f32735;"/><path d="m109.4,93.35c1.5,0,2.53-.71,3.08-2.12.55-1.42.83-3.69.83-6.82-.67.97-1.6,1.73-2.8,2.3-1.2.57-2.55.85-4.05.85-3.2,0-5.8-1-7.8-3s-3-4.88-3-8.65c0-2.47.52-4.62,1.55-6.48,1.03-1.85,2.51-3.27,4.43-4.27,1.92-1,4.16-1.5,6.72-1.5,5.1,0,8.66,1.54,10.67,4.62s3.03,7.56,3.03,13.42c0,6.57-.98,11.47-2.92,14.7-1.95,3.23-5.29,4.85-10.03,4.85-2.57,0-4.78-.53-6.62-1.58s-3.27-2.43-4.25-4.15c-.98-1.72-1.54-3.58-1.67-5.58h9.15c.4,2.27,1.63,3.4,3.7,3.4Zm2.15-14.42c.67-.68,1-1.61,1-2.77,0-1.33-.34-2.33-1.03-3-.68-.67-1.62-1-2.83-1s-2.14.34-2.82,1.02-1.03,1.66-1.03,2.92c0,1.17.34,2.1,1.03,2.8.68.7,1.66,1.05,2.92,1.05,1.17,0,2.08-.34,2.75-1.03Z" style="fill:#f32735;"/></g></g></svg>