<svg xmlns="http://www.w3.org/2000/svg" width="33" height="33" viewBox="0 0 33 33">
  <g id="Group_15460" data-name="Group 15460" transform="translate(-1355 -4261.55)">
    <g id="Path_12809" data-name="Path 12809" transform="translate(1355 4261.55)" fill="none">
      <path d="M16.5,0A16.5,16.5,0,1,1,0,16.5,16.5,16.5,0,0,1,16.5,0Z" stroke="none"/>
      <path d="M 16.5 3 C 12.89402008056641 3 9.503870010375977 4.404239654541016 6.954059600830078 6.954059600830078 C 4.404239654541016 9.503870010375977 3 12.89402008056641 3 16.5 C 3 20.10597991943359 4.404239654541016 23.49612998962402 6.954059600830078 26.04594039916992 C 9.503870010375977 28.59576034545898 12.89402008056641 30 16.5 30 C 20.10597991943359 30 23.49612998962402 28.59576034545898 26.04594039916992 26.04594039916992 C 28.59576034545898 23.49612998962402 30 20.10597991943359 30 16.5 C 30 12.89402008056641 28.59576034545898 9.503870010375977 26.04594039916992 6.954059600830078 C 23.49612998962402 4.404239654541016 20.10597991943359 3 16.5 3 M 16.5 0 C 25.61269950866699 0 33 7.387300491333008 33 16.5 C 33 25.61269950866699 25.61269950866699 33 16.5 33 C 7.387300491333008 33 0 25.61269950866699 0 16.5 C 0 7.387300491333008 7.387300491333008 0 16.5 0 Z" stroke="none" fill="#fff"/>
    </g>
    <path id="Icon_material-play-arrow" data-name="Icon material-play-arrow" d="M12,7.5V21.025l10.627-6.763Z" transform="translate(1355.792 4264.042)" fill="#fff"/>
  </g>
</svg>
