<svg xmlns="http://www.w3.org/2000/svg" xmlns:xlink="http://www.w3.org/1999/xlink" width="168.612" height="91.737" viewBox="0 0 168.612 91.737">
  <defs>
    <clipPath id="clip-path">
      <rect id="Rectangle_7471" data-name="Rectangle 7471" width="167.088" height="88.834" fill="none"/>
    </clipPath>
  </defs>
  <g id="Group_15545" data-name="Group 15545" transform="matrix(1, -0.017, 0.017, 1, 0, 2.917)">
    <g id="Group_15544" data-name="Group 15544" transform="translate(0 -0.001)" clip-path="url(#clip-path)">
      <path id="Path_12879" data-name="Path 12879" d="M165.572,5.339C156.551,3.66,147.356,2.288,138.45.072c-2.61-.649-3.848,3.292-1.218,3.947,5.527,1.379,11.163,2.427,16.8,3.427-10.718,2.233-20.725,7.406-30.11,12.838C110.6,27.992,97.245,35.849,85.638,45.956,83.057,48.2,80.481,50.537,78.029,53c-3.351.375-6.684.968-9.936,1.542-7.811,1.377-15.576,3.116-23.46,4.052-8.143.966-16.8,1.27-24.856-.51A32.982,32.982,0,0,1,8.662,53.831c-1.873-1.228-4.7-3.066-4.428-5.585.285-2.647-3.915-2.778-4.2-.141-.459,4.225,3.523,7.517,6.842,9.5,5.43,3.245,11.752,4.8,18.035,5.414,13.033,1.27,25.737-1.03,38.487-3.427,3.375-.635,6.791-1.31,10.227-1.848a52.62,52.62,0,0,0-8.335,12.8c-1.568,3.533-2.8,7.68-1.541,11.489,1.333,4.033,5.521,6.351,9.652,6.722,10.215.917,21.541-7.1,26.254-15.64,2.246-4.064,3.818-9.947.949-14.134-2.786-4.064-7.5-5.737-12.31-6.2-1.277-.123-2.559-.179-3.848-.179.333-.306.665-.611,1-.913C97.205,41,110.7,32.769,124.429,24.773c10.69-6.224,22.366-12.661,34.93-14.041q-6.421,7.585-12.843,15.166c-1.729,2.042,1.844,4.219,3.547,2.2Q158.4,18.257,166.74,8.415a2.054,2.054,0,0,0-1.168-3.076M79.944,56.965c1.02-.087,2.038-.161,3.054-.2,4.086-.149,9.086.006,12.449,2.626,3.61,2.812,2.725,8.03.661,11.524a29.246,29.246,0,0,1-9.2,9.512c-4.155,2.689-9.951,5.559-15.039,3.834-4.121-1.4-5.1-4.727-3.981-8.653C69.9,68.535,74.68,62.349,79.944,56.965" transform="translate(0 0.001)" fill="#fff"/>
    </g>
  </g>
</svg>
