<svg xmlns="http://www.w3.org/2000/svg" width="83.422" height="83.321" viewBox="0 0 83.422 83.321">
  <g id="Group_2205" data-name="Group 2205" transform="translate(-7588.665 -2237.615)">
    <path id="Path_604" data-name="Path 604" d="M4881.479,186.345c.163-1.175.927-1.6,2.021-1.762a28.51,28.51,0,0,0,3.39-.728,1.492,1.492,0,0,0,.771-.736,2.195,2.195,0,0,0-.934-3.179,19.888,19.888,0,0,1-2.075-1.844,1.444,1.444,0,0,1-.364-1.946c.642-1.164,1.309-2.314,1.978-3.463A1.476,1.476,0,0,1,4888.2,172c1.265.414,2.538.8,3.792,1.238a1.154,1.154,0,0,0,1.208-.284c1.257-.884,1.285-1.9.693-3.178a25.743,25.743,0,0,1-.839-2.552,1.506,1.506,0,0,1,.683-2.008c1.125-.654,2.25-1.307,3.386-1.94a1.522,1.522,0,0,1,2.083.418c.856.982,1.755,1.927,2.608,2.912a1.137,1.137,0,0,0,1.193.361,2.172,2.172,0,0,0,2.166-2.322,21.208,21.208,0,0,1,.611-2.881,1.348,1.348,0,0,1,1.381-1.2q2.123-.037,4.25,0a1.349,1.349,0,0,1,1.372,1.207c.278,1.3.6,2.594.834,3.9.106.587.39.8.934,1.034a2.16,2.16,0,0,0,2.975-.947,25.526,25.526,0,0,1,1.9-2.139,1.446,1.446,0,0,1,1.944-.378c1.165.64,2.318,1.3,3.467,1.972a1.514,1.514,0,0,1,.67,2.015c-.418,1.231-.777,2.483-1.209,3.71a1.152,1.152,0,0,0,.267,1.212c.885,1.243,1.888,1.31,3.176.709a23.3,23.3,0,0,1,2.634-.867,1.478,1.478,0,0,1,1.931.694c.667,1.15,1.334,2.3,1.977,3.464a1.452,1.452,0,0,1-.373,1.946c-.993.888-1.969,1.8-2.974,2.67a1.137,1.137,0,0,0-.375,1.19,2.182,2.182,0,0,0,2.314,2.177,21.633,21.633,0,0,1,2.881.612,1.353,1.353,0,0,1,1.208,1.373c.032,1.386.033,2.774.013,4.161a1.425,1.425,0,0,1-1.294,1.491c-1.3.264-2.6.584-3.9.833-.556.106-.74.4-.957.91a2.154,2.154,0,0,0,.939,2.975,19.225,19.225,0,0,1,2.01,1.788c.83.762.946,1.238.432,2.212-.567,1.073-1.167,2.13-1.8,3.163-.624,1.008-1.064,1.144-2.179.793-1.212-.382-2.43-.75-3.63-1.174a1.148,1.148,0,0,0-1.213.262c-1.241.883-1.314,1.885-.711,3.175a22.976,22.976,0,0,1,.866,2.634,1.482,1.482,0,0,1-.691,1.933c-1.149.669-2.3,1.335-3.464,1.976a1.448,1.448,0,0,1-1.946-.371c-.867-.972-1.765-1.918-2.611-2.907a1.267,1.267,0,0,0-1.331-.424,2.136,2.136,0,0,0-2.093,2.291,24.155,24.155,0,0,1-.614,2.881,1.351,1.351,0,0,1-1.37,1.212q-2.123.045-4.247,0a1.389,1.389,0,0,1-1.407-1.28c-.264-1.3-.583-2.6-.828-3.9-.1-.559-.4-.745-.909-.957a2.161,2.161,0,0,0-2.979.93,24.163,24.163,0,0,1-1.842,2.077,1.519,1.519,0,0,1-2.083.422c-1.135-.634-2.256-1.293-3.383-1.944a1.5,1.5,0,0,1-.687-2c.413-1.233.768-2.487,1.209-3.709.2-.552.006-.837-.319-1.276a2.15,2.15,0,0,0-3.03-.694,24.1,24.1,0,0,1-2.712.9,1.48,1.48,0,0,1-1.937-.68q-.984-1.685-1.942-3.384a1.516,1.516,0,0,1,.387-2.088c.98-.858,1.918-1.765,2.913-2.606.445-.377.421-.727.36-1.272a2.1,2.1,0,0,0-2.277-2.1c-.741-.042-1.462-.36-2.2-.453-1.1-.137-1.861-.581-2.023-1.758Zm48.967-11.43c-1.477.47-2.912.9-4.327,1.385a1.627,1.627,0,0,1-1.93-.536c-.694-.774-1.42-1.525-2.187-2.228-.967-.888-1.069-1.146-.66-2.416.43-1.337.859-2.674,1.294-4.029l-1.7-.961c-1.042,1.148-2.061,2.25-3.056,3.373a1.637,1.637,0,0,1-1.942.5,22.672,22.672,0,0,0-3.09-.84,1.8,1.8,0,0,1-1.658-1.6c-.269-1.438-.613-2.863-.919-4.265h-1.981c-.322,1.5-.643,2.943-.934,4.388a1.7,1.7,0,0,1-1.5,1.452,19.612,19.612,0,0,0-3.011.794,1.825,1.825,0,0,1-2.3-.587c-.933-1.1-1.925-2.141-2.913-3.231l-1.694.992c.456,1.407.885,2.726,1.309,4.046.393,1.219.288,1.507-.636,2.353a21.887,21.887,0,0,0-2.075,2.092,1.839,1.839,0,0,1-2.289.645c-1.35-.484-2.729-.892-4.127-1.343-.344.621-.644,1.165-.949,1.714,1.1.995,2.1,1.957,3.164,2.851a1.859,1.859,0,0,1,.624,2.366,16.511,16.511,0,0,0-.774,2.928,1.765,1.765,0,0,1-1.571,1.587c-1.437.276-2.864.616-4.288.927v1.967c1.47.318,2.876.65,4.3.92a1.754,1.754,0,0,1,1.565,1.588,14.341,14.341,0,0,0,.748,2.845,1.936,1.936,0,0,1-.663,2.509c-1.064.883-2.061,1.846-3.116,2.8l.979,1.7c1.508-.481,2.947-.917,4.368-1.4a1.589,1.589,0,0,1,1.857.516,25.057,25.057,0,0,0,2.262,2.274,1.889,1.889,0,0,1,.638,2.369c-.481,1.322-.875,2.676-1.322,4.061l1.71.955c1.063-1.17,2.081-2.277,3.08-3.4a1.589,1.589,0,0,1,1.868-.479,26.194,26.194,0,0,0,3.176.858,1.773,1.773,0,0,1,1.6,1.551c.277,1.441.612,2.871.926,4.319h1.974c.316-1.456.652-2.861.917-4.279a1.789,1.789,0,0,1,1.658-1.6,17.012,17.012,0,0,0,2.924-.788,1.79,1.79,0,0,1,2.229.573c.938,1.1,1.931,2.144,2.937,3.251l1.693-.967c-.477-1.5-.91-2.936-1.394-4.355a1.6,1.6,0,0,1,.495-1.864c.845-.788,1.674-1.6,2.454-2.45a1.636,1.636,0,0,1,1.93-.534c1.415.486,2.849.915,4.334,1.387l.959-1.7c-1.118-1.015-2.168-2.008-3.263-2.949a1.762,1.762,0,0,1-.581-2.152,23.427,23.427,0,0,0,.828-3.093,1.738,1.738,0,0,1,1.519-1.535c1.443-.28,2.875-.61,4.348-.927v-1.981c-1.473-.316-2.9-.646-4.348-.926a1.727,1.727,0,0,1-1.518-1.535,16.036,16.036,0,0,0-.771-2.929,1.891,1.891,0,0,1,.646-2.436c1.08-.9,2.1-1.883,3.151-2.836l-.977-1.689" transform="translate(2707.186 2104.974)" fill="#fff"/>
    <path id="Path_605" data-name="Path 605" d="M5131.771.291a2.059,2.059,0,0,1,1.785,1.829c.2.87.522,1.713.8,2.563a1.027,1.027,0,0,0,1.6.665c.956-.483,1.91-.967,2.845-1.485a1.478,1.478,0,0,1,1.91.18c.814.78,1.606,1.582,2.392,2.389a1.514,1.514,0,0,1,.19,1.982c-.507.908-.973,1.84-1.444,2.768a1.035,1.035,0,0,0,.688,1.652q1.569.5,3.14,1a1.355,1.355,0,0,1,1.074,1.311q.04,1.816,0,3.634a1.4,1.4,0,0,1-1.133,1.359c-1.021.315-2.037.65-3.055.976-.9.29-1.137.851-.694,1.711.49.951.99,1.9,1.49,2.842a1.407,1.407,0,0,1-.187,1.764c-.818.857-1.652,1.7-2.511,2.515a1.443,1.443,0,0,1-1.84.157c-.913-.5-1.839-.974-2.764-1.45-.885-.456-1.441-.214-1.752.758-.282.881-.594,1.754-.82,2.649a1.787,1.787,0,0,1-1.9,1.539q-1.386,0-2.774,0a1.787,1.787,0,0,1-1.9-1.54c-.241-.951-.567-1.881-.874-2.815a1,1,0,0,0-1.539-.657q-1.476.736-2.926,1.517a1.473,1.473,0,0,1-1.9-.221c-.805-.788-1.607-1.581-2.392-2.389a1.476,1.476,0,0,1-.2-1.908c.516-.937,1-1.891,1.484-2.845a1.022,1.022,0,0,0-.648-1.612c-1.041-.346-2.087-.683-3.139-1a1.382,1.382,0,0,1-1.133-1.354q-.037-1.816.005-3.634a1.342,1.342,0,0,1,1.075-1.306c1.048-.325,2.1-.655,3.138-1a1.042,1.042,0,0,0,.688-1.659c-.459-.9-.9-1.814-1.41-2.688a1.632,1.632,0,0,1,.265-2.2c.737-.735,1.474-1.469,2.22-2.195a1.512,1.512,0,0,1,1.976-.237c.936.519,1.891,1,2.847,1.48a1.015,1.015,0,0,0,1.6-.663c.28-.851.6-1.693.8-2.564a2.053,2.053,0,0,1,1.786-1.827Zm-1.679,30.587c.83.009.834.011,1.078-.755a21.692,21.692,0,0,1,.856-2.634,3.325,3.325,0,0,1,1.18-1.25,3.828,3.828,0,0,1,4.779.276c.229.171.526.246.765.4a.858.858,0,0,0,1.275-.082.893.893,0,0,0,.117-1.341c-.161-.238-.235-.536-.4-.765a3.927,3.927,0,0,1-.33-4.725,2.331,2.331,0,0,1,1.4-1.28c.806-.223,1.6-.491,2.4-.737.5-.153.94-.241.932-.992-.007-.707-.35-.877-.887-1.029-.806-.228-1.6-.516-2.4-.733a2.367,2.367,0,0,1-1.462-1.331,3.886,3.886,0,0,1,.323-4.647c.2-.275.294-.632.49-.915a.811.811,0,0,0-.153-1.193A.874.874,0,0,0,5138.786,7c-1.744.963-3.46,2.308-5.55.742-.021-.016-.062-.011-.08-.029a5.17,5.17,0,0,1-1.116-1.21,17.548,17.548,0,0,1-.845-2.638c-.147-.526-.337-.823-.987-.823a.869.869,0,0,0-.985.82c-.069.309-.222.6-.267.915a3.8,3.8,0,0,1-3.225,3.535,3.206,3.206,0,0,1-1.637-.05A15.171,15.171,0,0,1,5121.627,7a.875.875,0,0,0-1.269.142.836.836,0,0,0-.106,1.27c.164.235.236.535.406.764a3.834,3.834,0,0,1,.291,4.78,3.454,3.454,0,0,1-1.241,1.191,15.943,15.943,0,0,1-2.469.8c-.54.158-.979.267-.975,1.05.006.748.436.838.934.991a19.681,19.681,0,0,1,2.552.826,3.146,3.146,0,0,1,1.184,1.136,3.824,3.824,0,0,1-.259,4.783c-.173.226-.245.527-.4.764a.9.9,0,0,0,.116,1.341.859.859,0,0,0,1.274.081c.266-.173.594-.257.842-.447a3.749,3.749,0,0,1,4.7-.234,3.29,3.29,0,0,1,1.178,1.252,16.448,16.448,0,0,1,.877,2.718c.134.509.359.77.828.669" transform="translate(2515.464 2237.324)" fill="#fff"/>
    <path id="Path_606" data-name="Path 606" d="M5226.037,206.057c-.355.768-.692,1.5-1.031,2.231a1.324,1.324,0,0,0,.81,1.969c.244.09.486.184.732.272,1.892.674,2.008.836,2.046,2.874,0,.087,0,.174,0,.261.008,2.43-.042,2.613-2.362,3.33a1.628,1.628,0,0,0-1.043,2.618c1.108,2.05,1.008,2.22-.634,3.882-.143.144-.289.284-.438.422-1.357,1.257-1.517,1.261-3.2.5-.646-.292-1.273-.934-2.07-.388a2.294,2.294,0,0,0-.656.716,5.64,5.64,0,0,0-.362.973c-.6,1.69-.805,1.841-2.631,1.9-.116,0-.231.006-.347.007-2.541.025-2.7-.021-3.454-2.427a1.588,1.588,0,0,0-2.5-1.022c-2.195,1.144-2.376,1.06-4.086-.7-.2-.208-.382-.436-.592-.635a1.838,1.838,0,0,1-.383-2.561,10.111,10.111,0,0,0,.634-1.33,1.351,1.351,0,0,0-.691-1.706,14.37,14.37,0,0,0-1.555-.544,1.653,1.653,0,0,1-1.367-1.665c-.014-.318-.052-.635-.059-.953-.062-2.756-.02-2.815,2.556-3.722,1.2-.424,1.483-1.087.942-2.235-1.18-2.5-1.163-2.584.876-4.5,1.462-1.375,1.6-1.4,3.407-.532.233.113.468.228.7.336a1.332,1.332,0,0,0,1.958-.844c1.038-2.834,1.041-2.837,3.939-2.753,1.854.053,2.042.191,2.669,1.959.125.354.241.713.385,1.059a1.384,1.384,0,0,0,1.646.672c.294-.121.579-.266.866-.4,1.919-.894,2.031-.883,3.542.576a13.178,13.178,0,0,1,1.227,1.346,5.99,5.99,0,0,1,.519,1.021m-11.818,18.715c.731.248,1.127-.031,1.3-.769a5.383,5.383,0,0,1,.463-1.3,1.871,1.871,0,0,1,.715-.819c1.618-.781,3.263-1.592,4.977-.193a.119.119,0,0,0,.079.033c.271-.052.63-.025.786-.189a.93.93,0,0,0,.13-.789c-.169-.518-.513-.981-.663-1.5a2.447,2.447,0,0,1-.058-1.326c.54-1.721,1.259-3.318,3.4-3.514.029,0,.068-.009.08-.028.134-.218.369-.44.367-.659a.843.843,0,0,0-.386-.634c-.518-.25-1.1-.358-1.619-.606a1.917,1.917,0,0,1-.911-.729c-.773-1.612-1.618-3.255-.221-4.975a.123.123,0,0,0,.033-.079c-.042-.273,0-.631-.16-.793a.906.906,0,0,0-.782-.159c-.545.179-1.038.517-1.583.7a1.972,1.972,0,0,1-1.165.081c-1.7-.59-3.407-1.212-3.644-3.412a.8.8,0,0,0-.634-.469,1.065,1.065,0,0,0-.7.523c-.249.483-.33,1.055-.586,1.533a2.2,2.2,0,0,1-.845.92c-1.6.8-3.234,1.484-4.9.122a.118.118,0,0,0-.079-.032c-.248.046-.587.017-.718.168a.96.96,0,0,0-.179.782c.151.492.525.926.622,1.421a4.119,4.119,0,0,1-.013,1.724,3.841,3.841,0,0,1-3.3,3.285.744.744,0,0,0-.411.6.952.952,0,0,0,.434.683c.512.257,1.113.343,1.613.616a2.387,2.387,0,0,1,.966.913c.822,1.606,1.384,3.252.065,4.9a.119.119,0,0,0-.032.079c.052.223.04.517.18.647a.866.866,0,0,0,.7.226c.572-.193,1.087-.564,1.664-.723a2.842,2.842,0,0,1,1.4-.01c1.853.476,3.215,1.479,3.495,3.533a.7.7,0,0,0,.121.228" transform="translate(2443.488 2072.56)" fill="#fff"/>
    <path id="Path_607" data-name="Path 607" d="M4911.717,101.691c-.677-.678-1.286-1.29-2.11-2.118l1.819-1.216c-.1-.13-.194-.26-.293-.39-10.969-.346-20.1,3.616-27.47,11.957l-2.138-1.772c7.939-9.049,17.853-13.327,29.971-12.978l-1.7-1.781,1.987-1.793c1.324,1.294,2.778,2.658,4.161,4.09a1.262,1.262,0,0,1-.108,1.876c-1.333,1.367-2.694,2.7-4.114,4.125" transform="translate(2707.149 2161.918)" fill="#fff"/>
    <path id="Path_608" data-name="Path 608" d="M5302.776,19.728c3.885,8.971,2.969,17.311-2.78,25.246l-2.2-1.77a20.745,20.745,0,0,0,4.553-12.789,19.97,19.97,0,0,0-2.057-9.136c-.269,1.253-.509,2.376-.766,3.577l-2.7-.516c.282-1.426.554-2.8.826-4.177.179-.908.34-1.82.546-2.721a1.328,1.328,0,0,1,1.581-1.149c2.3.425,4.588.9,6.992,1.385-.175.915-.34,1.776-.518,2.709l-3.483-.659" transform="translate(2364.171 2224.132)" fill="#fff"/>
    <path id="Path_609" data-name="Path 609" d="M4953.334,247.062a15.294,15.294,0,1,1,15.271,15.338,15.316,15.316,0,0,1-15.271-15.338m15.344-12.469a12.513,12.513,0,1,0,12.463,12.52,12.537,12.537,0,0,0-12.463-12.52" transform="translate(2647.845 2046.124)" fill="#fff"/>
    <path id="Path_610" data-name="Path 610" d="M5175.909,56.191A6.949,6.949,0,1,1,5168.9,63.1a6.965,6.965,0,0,1,7.012-6.907m4.105,6.908a4.169,4.169,0,1,0-4.173,4.209,4.185,4.185,0,0,0,4.173-4.209" transform="translate(2469.825 2191.16)" fill="#fff"/>
    <path id="Path_611" data-name="Path 611" d="M5259.847,253.357a5.558,5.558,0,1,1-5.569-5.569,5.575,5.575,0,0,1,5.569,5.569m-5.534-2.789a2.779,2.779,0,1,0,2.753,2.781,2.794,2.794,0,0,0-2.753-2.781" transform="translate(2403.895 2032.932)" fill="#fff"/>
  </g>
</svg>
