<?xml version="1.0" encoding="UTF-8"?><svg id="Layer_1" xmlns="http://www.w3.org/2000/svg" viewBox="0 0 150 150"><path d="m104.73,47.32h-44.98c-1.31,0-2.37-1.06-2.37-2.37s1.06-2.37,2.37-2.37h44.98c1.31,0,2.37,1.06,2.37,2.37s-1.06,2.37-2.37,2.37Z" style="fill:#021d49;"/><path d="m144.37,122.86h-8.73c-.88,0-1.69-.49-2.1-1.27l-28.81-54.91-28.81,54.91c-.41.78-1.22,1.27-2.1,1.27h-8.73c-.83,0-1.6-.43-2.03-1.14-.43-.71-.46-1.59-.07-2.33l39.64-75.54c.41-.78,1.22-1.27,2.1-1.27s1.69.49,2.1,1.27l39.64,75.54c.39.74.36,1.62-.07,2.33-.43.71-1.2,1.14-2.03,1.14Zm-7.29-4.74h3.37l-35.72-68.06-35.72,68.06h3.37l30.25-57.64c.41-.78,1.22-1.27,2.1-1.27s1.69.49,2.1,1.27l30.25,57.64Z" style="fill:#021d49;"/><path d="m115.8,68.43c-1.31,0-2.37-1.06-2.37-2.37v-28.1h-17.41v6.99c0,1.31-1.06,2.37-2.37,2.37s-2.37-1.06-2.37-2.37v-9.37c0-1.31,1.06-2.37,2.37-2.37h22.15c1.31,0,2.37,1.06,2.37,2.37v30.47c0,1.31-1.06,2.37-2.37,2.37Z" style="fill:#021d49;"/><path d="m5.63,122.86c-.37,0-.75-.09-1.1-.27-1.16-.61-1.61-2.04-1-3.2l33.2-63.26c.61-1.16,2.04-1.61,3.2-1,1.16.61,1.61,2.04,1,3.2L7.73,121.59c-.42.81-1.25,1.27-2.1,1.27Z" style="fill:#021d49;"/><path d="m138.5,122.86h-50.01c-1.31,0-2.37-1.06-2.37-2.37s1.06-2.37,2.37-2.37h50.01c1.31,0,2.37,1.06,2.37,2.37s-1.06,2.37-2.37,2.37Z" style="fill:#021d49;"/><path d="m45.27,122.87c-.61,0-1.21-.23-1.68-.69-.93-.92-.93-2.43,0-3.36.18-.18,4.52-4.46,11.32-4.46s11.54,4.17,11.74,4.35c.98.86,1.08,2.36.22,3.35-.86.98-2.36,1.08-3.34.22-.07-.06-3.76-3.18-8.62-3.18s-7.94,3.04-7.97,3.07c-.46.46-1.07.7-1.67.7Z" style="fill:#021d49;"/><path d="m25.45,122.87c-.61,0-1.21-.23-1.68-.69-.93-.92-.93-2.43,0-3.36.18-.18,4.52-4.46,11.32-4.46s11.54,4.17,11.74,4.35c.98.86,1.08,2.36.22,3.35-.86.98-2.36,1.08-3.34.22-.07-.06-3.76-3.18-8.62-3.18s-7.94,3.04-7.97,3.07c-.46.46-1.07.7-1.67.7Z" style="fill:#021d49;"/><path d="m5.63,122.87c-.61,0-1.21-.23-1.68-.69-.93-.92-.93-2.43,0-3.36.18-.18,4.52-4.46,11.32-4.46s11.54,4.17,11.74,4.35c.98.86,1.08,2.36.22,3.35-.86.98-2.36,1.08-3.34.22-.07-.06-3.76-3.18-8.62-3.18s-7.94,3.04-7.97,3.07c-.46.46-1.07.7-1.67.7Z" style="fill:#021d49;"/><path d="m55.17,103.99c-.61,0-1.21-.23-1.68-.69-.93-.92-.93-2.43,0-3.36.18-.18,4.52-4.46,11.32-4.46s11.54,4.17,11.74,4.35c.98.86,1.08,2.36.22,3.35-.86.98-2.36,1.08-3.34.22-.07-.06-3.76-3.18-8.62-3.18s-7.94,3.04-7.97,3.07c-.46.46-1.07.7-1.67.7Z" style="fill:#021d49;"/><path d="m55.18,103.98c-.55,0-1.11-.19-1.56-.58-.07-.06-3.76-3.18-8.62-3.18s-7.93,3.03-7.96,3.06c-.92.93-2.43.93-3.35,0s-.93-2.43,0-3.35c.18-.18,4.52-4.46,11.32-4.46s11.54,4.17,11.74,4.35c.98.86,1.08,2.36.22,3.35-.47.53-1.12.81-1.78.81Z" style="fill:#021d49;"/><path d="m15.54,103.99c-.61,0-1.21-.23-1.68-.69-.93-.92-.93-2.43,0-3.36.18-.18,4.52-4.46,11.32-4.46s11.54,4.17,11.74,4.35c.98.86,1.08,2.36.22,3.35-.86.98-2.35,1.08-3.34.22-.05-.04-3.75-3.18-8.62-3.18s-7.94,3.04-7.97,3.07c-.46.46-1.07.7-1.67.7Z" style="fill:#021d49;"/><path d="m65.08,85.11c-.61,0-1.21-.23-1.68-.69-.93-.92-.93-2.43,0-3.36.18-.18,4.52-4.46,11.32-4.46s11.54,4.17,11.74,4.35c.98.86,1.08,2.36.22,3.35-.86.98-2.36,1.08-3.34.22-.07-.06-3.76-3.18-8.62-3.18s-7.94,3.04-7.97,3.07c-.46.46-1.07.7-1.67.7Z" style="fill:#021d49;"/><path d="m45.27,85.11c-.61,0-1.21-.23-1.68-.69-.93-.92-.93-2.43,0-3.36.18-.18,4.52-4.46,11.32-4.46s11.54,4.17,11.74,4.35c.98.86,1.08,2.36.22,3.35-.86.98-2.36,1.08-3.34.22-.07-.06-3.76-3.18-8.62-3.18s-7.94,3.04-7.97,3.07c-.46.46-1.07.7-1.67.7Z" style="fill:#021d49;"/><path d="m25.45,85.11c-.61,0-1.21-.23-1.68-.69-.93-.92-.93-2.43,0-3.36.18-.18,4.52-4.46,11.32-4.46s11.54,4.17,11.74,4.35c.98.86,1.08,2.36.22,3.35-.86.98-2.36,1.08-3.34.22-.07-.06-3.76-3.18-8.62-3.18s-7.94,3.04-7.97,3.07c-.46.46-1.07.7-1.67.7Z" style="fill:#021d49;"/><path d="m74.99,66.22c-.61,0-1.21-.23-1.68-.69-.93-.92-.93-2.43,0-3.36.18-.18,4.52-4.46,11.32-4.46s11.54,4.17,11.74,4.35c.98.86,1.08,2.36.22,3.35-.86.98-2.36,1.08-3.34.22-.07-.06-3.76-3.18-8.62-3.18s-7.94,3.04-7.97,3.07c-.46.46-1.07.7-1.67.7Z" style="fill:#021d49;"/><path d="m55.17,66.22c-.61,0-1.21-.23-1.68-.69-.93-.92-.93-2.43,0-3.36.18-.18,4.52-4.46,11.32-4.46s11.54,4.17,11.74,4.35c.98.86,1.08,2.36.22,3.35-.86.98-2.36,1.08-3.34.22-.07-.06-3.76-3.18-8.62-3.18s-7.94,3.04-7.97,3.07c-.46.46-1.07.7-1.67.7Z" style="fill:#021d49;"/><path d="m35.36,66.22c-.61,0-1.21-.23-1.68-.69-.93-.92-.93-2.43,0-3.36.18-.18,4.52-4.46,11.32-4.46s11.54,4.17,11.74,4.35c.98.86,1.08,2.36.22,3.35-.86.98-2.36,1.08-3.34.22-.08-.07-3.77-3.18-8.62-3.18s-7.94,3.04-7.97,3.07c-.46.46-1.07.7-1.67.7Z" style="fill:#021d49;"/><path d="m25.45,122.86c-.37,0-.75-.09-1.1-.27-1.16-.61-1.61-2.04-1-3.2L62.99,43.85c.61-1.16,2.04-1.61,3.2-1,1.16.61,1.61,2.04,1,3.2L27.55,121.59c-.42.81-1.25,1.27-2.1,1.27Z" style="fill:#021d49;"/><path d="m45.27,122.86c-.37,0-.75-.09-1.1-.27-1.16-.61-1.61-2.04-1-3.2l39.64-75.54c.61-1.16,2.04-1.61,3.2-1,1.16.61,1.61,2.04,1,3.2l-39.64,75.54c-.42.81-1.25,1.27-2.1,1.27Z" style="fill:#021d49;"/><path d="m27.75,54.52c-.49,0-.98-.15-1.41-.46-.95-.69-1.24-1.98-.69-3.02l9.91-18.88c.11-.21.25-.4.42-.57.18-.18,4.52-4.46,11.32-4.46s11.54,4.17,11.74,4.35c.82.72,1.04,1.91.54,2.88l-9.91,18.88c-.34.64-.95,1.1-1.67,1.23-.71.13-1.45-.07-2-.55-.03-.03-3.73-3.17-8.61-3.17s-7.94,3.04-7.97,3.07c-.46.46-1.06.7-1.67.7Zm9.64-8.51c3.94,0,7.23,1.44,9.32,2.66l7.7-14.67c-1.53-.92-4.1-2.13-7.11-2.13-4.04,0-6.92,2.17-7.73,2.86l-6.18,11.78c1.21-.31,2.55-.5,4.01-.5Z" style="fill:#021d49;"/></svg>