<?xml version="1.0" encoding="UTF-8"?><svg id="Layer_1" xmlns="http://www.w3.org/2000/svg" viewBox="0 0 150 150"><path d="m123.74,73.68c-.41,0-.83-.14-1.18-.41l-47.56-38.13-47.56,38.13c-.79.64-1.95.53-2.61-.24l-6.31-7.38c-.33-.39-.49-.89-.44-1.4.05-.51.3-.97.69-1.29l55.05-44.48c.69-.56,1.68-.56,2.37,0l55.05,44.48c.4.32.64.79.69,1.29.05.51-.11,1.01-.44,1.4l-6.31,7.38c-.37.43-.9.66-1.43.66Zm-48.74-42.84c.42,0,.83.14,1.18.41l47.32,37.94,3.87-4.52-52.36-42.3-52.36,42.3,3.87,4.52,47.32-37.94c.34-.28.76-.41,1.18-.41Z" style="fill:#021d49;"/><path d="m112.15,51.84c-1.04,0-1.88-.84-1.88-1.88v-15.14h-6.33v6.99c0,1.04-.84,1.88-1.88,1.88s-1.88-.84-1.88-1.88v-8.87c0-1.04.84-1.88,1.88-1.88h10.09c1.04,0,1.88.84,1.88,1.88v17.02c0,1.04-.84,1.88-1.88,1.88Z" style="fill:#021d49;"/><path d="m75,65.72c-1.04,0-1.88-.84-1.88-1.88v-14.33c0-1.04.84-1.88,1.88-1.88s1.88.84,1.88,1.88v14.33c0,1.04-.84,1.88-1.88,1.88Z" style="fill:#021d49;"/><path d="m82.88,65.72h-15.76c-1.04,0-1.88-.84-1.88-1.88v-14.33c0-1.04.84-1.88,1.88-1.88h15.76c1.04,0,1.88.84,1.88,1.88v14.33c0,1.04-.84,1.88-1.88,1.88Zm-13.88-3.76h12v-10.56h-12v10.56Z" style="fill:#021d49;"/><path d="m91.54,131.93c-2.15,0-4.18-.84-5.7-2.36l-12.13-12.13c-.74-.74-.74-1.93,0-2.66.74-.73,1.93-.73,2.66,0l12.13,12.13c.81.81,1.89,1.26,3.04,1.26s2.23-.45,3.04-1.26c.81-.81,1.26-1.89,1.26-3.04s-.45-2.23-1.26-3.04l-12.13-12.13c-.74-.74-.74-1.93,0-2.66.74-.73,1.93-.73,2.66,0l12.13,12.13c1.52,1.52,2.36,3.55,2.36,5.7s-.84,4.18-2.36,5.7c-1.52,1.52-3.55,2.36-5.7,2.36Z" style="fill:#021d49;"/><path d="m67.67,110.62c-.48,0-.96-.18-1.33-.55l-13.01-13.01c-4.84,1.07-9.7-.31-13.19-3.8-4.04-4.04-5.25-9.95-3.16-15.44.23-.6.74-1.04,1.37-1.17.62-.13,1.27.06,1.72.51l6.91,6.91,4.76-4.76-6.91-6.91c-.45-.45-.64-1.1-.51-1.72.13-.62.57-1.14,1.17-1.37,5.49-2.09,11.41-.88,15.44,3.16,3.49,3.49,4.87,8.35,3.8,13.19l13.01,13.01c.74.74.74,1.93,0,2.66s-1.93.73-2.66,0l-13.78-13.78c-.49-.49-.67-1.21-.47-1.87,1.17-3.91.24-7.75-2.56-10.56-2.28-2.28-5.29-3.33-8.41-3.02l5.87,5.87c.74.74.74,1.93,0,2.66l-7.42,7.42c-.74.73-1.93.73-2.66,0l-5.87-5.87c-.31,3.12.74,6.13,3.02,8.41,2.8,2.8,6.65,3.74,10.56,2.56.66-.2,1.38-.02,1.87.47l13.78,13.78c.74.74.74,1.93,0,2.66-.37.37-.85.55-1.33.55Z" style="fill:#021d49;"/><path d="m108.45,102.72c-.7,0-1.38-.26-1.9-.77l-12.75-12.75c-.36-.36-.69-.75-.99-1.16-.02-.03-.05-.07-.07-.1l-9.37-14.85c-.91-1.32-.72-3.14.48-4.43,1.21-1.3,3-1.65,4.41-.86l16.32,7.58c.06.03.13.06.19.1.65.4,1.25.87,1.79,1.41,0,0,0,0,0,0l12.54,12.54c.57.56.84,1.36.76,2.18-.07.7-.39,1.36-.9,1.87l-8.35,8.35c-.6.6-1.39.91-2.15.91Zm-12.56-16.85c.17.23.36.46.57.66l12.05,12.05,7.21-7.21-11.83-11.83c-.3-.3-.64-.57-1.01-.81l-16.25-7.54s0,0,0,0l9.27,14.68Z" style="fill:#021d49;"/><path d="m60.34,131.94c-.94,0-1.89-.36-2.6-1.08l-4.82-4.82c-.7-.7-1.08-1.62-1.08-2.6s.38-1.91,1.08-2.6l38.2-38.2c.74-.73,1.93-.73,2.66,0,.74.74.74,1.93,0,2.66l-38.14,38.14,4.7,4.7,37.54-37.54c.74-.73,1.93-.73,2.66,0,.74.74.74,1.93,0,2.66l-37.6,37.6c-.72.72-1.66,1.08-2.6,1.08Z" style="fill:#021d49;"/></svg>