<?xml version="1.0" encoding="UTF-8"?><svg id="Layer_1" xmlns="http://www.w3.org/2000/svg" viewBox="0 0 150 150"><path d="m34.8,130.44c-4.42,0-6.72-1.75-8.56-3.16-1.54-1.17-2.65-2.02-4.84-2.02-1.01,0-1.83-.82-1.83-1.83s.82-1.83,1.83-1.83c3.42,0,5.35,1.47,7.06,2.77,1.7,1.29,3.16,2.41,6.34,2.41s4.65-1.12,6.34-2.41c1.7-1.3,3.63-2.77,7.06-2.77,1.01,0,1.83.82,1.83,1.83s-.82,1.83-1.83,1.83c-2.19,0-3.3.85-4.84,2.02-1.85,1.41-4.15,3.16-8.56,3.16Z" style="fill:#021d49;"/><path d="m61.6,130.44c-4.42,0-6.72-1.75-8.56-3.16-1.54-1.17-2.65-2.02-4.84-2.02-1.01,0-1.83-.82-1.83-1.83s.82-1.83,1.83-1.83c3.42,0,5.35,1.47,7.06,2.77,1.7,1.29,3.16,2.41,6.34,2.41s4.65-1.12,6.34-2.41c1.7-1.3,3.63-2.77,7.06-2.77,1.01,0,1.83.82,1.83,1.83s-.82,1.83-1.83,1.83c-2.19,0-3.3.85-4.84,2.02-1.85,1.41-4.15,3.16-8.56,3.16Z" style="fill:#021d49;"/><path d="m88.4,130.44c-4.42,0-6.72-1.75-8.56-3.16-1.54-1.17-2.65-2.02-4.84-2.02-1.01,0-1.83-.82-1.83-1.83s.82-1.83,1.83-1.83c3.42,0,5.35,1.47,7.06,2.77,1.7,1.29,3.16,2.41,6.34,2.41s4.65-1.12,6.34-2.41c1.7-1.3,3.63-2.77,7.06-2.77,1.01,0,1.83.82,1.83,1.83s-.82,1.83-1.83,1.83c-2.19,0-3.3.85-4.84,2.02-1.85,1.41-4.15,3.16-8.56,3.16Z" style="fill:#021d49;"/><path d="m115.2,130.44c-4.42,0-6.72-1.75-8.56-3.16-1.54-1.17-2.65-2.02-4.84-2.02-1.01,0-1.83-.82-1.83-1.83s.82-1.83,1.83-1.83c3.42,0,5.35,1.47,7.06,2.77,1.7,1.29,3.16,2.41,6.34,2.41s4.65-1.12,6.34-2.41c1.7-1.3,3.63-2.77,7.06-2.77,1.01,0,1.83.82,1.83,1.83s-.82,1.83-1.83,1.83c-2.19,0-3.3.85-4.84,2.02-1.85,1.41-4.15,3.16-8.56,3.16Z" style="fill:#021d49;"/><path d="m48.2,125.26c-1.01,0-1.83-.82-1.83-1.83v-31.93c-1.12.33-1.96.98-3,1.77-1.85,1.41-4.15,3.16-8.56,3.16s-6.72-1.75-8.56-3.16c-1.04-.79-1.89-1.44-3-1.77v31.93c0,1.01-.82,1.83-1.83,1.83s-1.83-.82-1.83-1.83v-34.01c0-1.01.82-1.83,1.83-1.83,3.42,0,5.35,1.47,7.06,2.77,1.7,1.29,3.16,2.41,6.34,2.41s4.65-1.12,6.34-2.41c1.7-1.3,3.63-2.77,7.06-2.77,1.01,0,1.83.82,1.83,1.83v34.01c0,1.01-.82,1.83-1.83,1.83Z" style="fill:#021d49;"/><path d="m75,125.26c-1.01,0-1.83-.82-1.83-1.83v-31.93c-1.12.33-1.96.98-3,1.77-1.85,1.41-4.15,3.16-8.56,3.16s-6.72-1.75-8.56-3.16c-1.04-.79-1.89-1.44-3-1.77v31.93c0,1.01-.82,1.83-1.83,1.83s-1.83-.82-1.83-1.83v-34.01c0-1.01.82-1.83,1.83-1.83,3.42,0,5.35,1.47,7.06,2.77,1.7,1.29,3.16,2.41,6.34,2.41s4.65-1.12,6.34-2.41c1.7-1.3,3.63-2.77,7.06-2.77,1.01,0,1.83.82,1.83,1.83v34.01c0,1.01-.82,1.83-1.83,1.83Z" style="fill:#021d49;"/><path d="m101.8,125.26c-1.01,0-1.83-.82-1.83-1.83v-31.93c-1.12.33-1.96.98-3,1.77-1.85,1.41-4.15,3.16-8.56,3.16s-6.72-1.75-8.56-3.16c-1.04-.79-1.89-1.44-3-1.77v31.93c0,1.01-.82,1.83-1.83,1.83s-1.83-.82-1.83-1.83v-34.01c0-1.01.82-1.83,1.83-1.83,3.42,0,5.35,1.47,7.06,2.77,1.7,1.29,3.16,2.41,6.34,2.41s4.65-1.12,6.34-2.41c1.7-1.3,3.63-2.77,7.06-2.77,1.01,0,1.83.82,1.83,1.83v34.01c0,1.01-.82,1.83-1.83,1.83Z" style="fill:#021d49;"/><path d="m128.6,125.26c-1.01,0-1.83-.82-1.83-1.83v-31.93c-1.12.33-1.96.98-3,1.77-1.85,1.41-4.15,3.16-8.56,3.16s-6.72-1.75-8.56-3.16c-1.04-.79-1.89-1.44-3-1.77v31.93c0,1.01-.82,1.83-1.83,1.83s-1.83-.82-1.83-1.83v-34.01c0-1.01.82-1.83,1.83-1.83,3.42,0,5.35,1.47,7.06,2.77,1.7,1.29,3.16,2.41,6.34,2.41s4.65-1.12,6.34-2.41c1.7-1.3,3.63-2.77,7.06-2.77,1.01,0,1.83.82,1.83,1.83v34.01c0,1.01-.82,1.83-1.83,1.83Z" style="fill:#021d49;"/><path d="m48.2,91.25c-1.01,0-1.83-.82-1.83-1.83v-31.93c-1.12.33-1.96.98-3,1.77-1.85,1.41-4.15,3.16-8.56,3.16s-6.72-1.75-8.56-3.16c-1.04-.79-1.89-1.44-3-1.77v31.93c0,1.01-.82,1.83-1.83,1.83s-1.83-.82-1.83-1.83v-34.01c0-1.01.82-1.83,1.83-1.83,3.42,0,5.35,1.47,7.06,2.77,1.7,1.29,3.16,2.41,6.34,2.41s4.65-1.12,6.34-2.41c1.7-1.3,3.63-2.77,7.06-2.77,1.01,0,1.83.82,1.83,1.83v34.01c0,1.01-.82,1.83-1.83,1.83Z" style="fill:#021d49;"/><path d="m75,91.25c-1.01,0-1.83-.82-1.83-1.83v-31.93c-1.12.33-1.96.98-3,1.77-1.85,1.41-4.15,3.16-8.56,3.16s-6.72-1.75-8.56-3.16c-1.04-.79-1.89-1.44-3-1.77v31.93c0,1.01-.82,1.83-1.83,1.83s-1.83-.82-1.83-1.83v-34.01c0-1.01.82-1.83,1.83-1.83,3.42,0,5.35,1.47,7.06,2.77,1.7,1.29,3.16,2.41,6.34,2.41s4.65-1.12,6.34-2.41c1.7-1.3,3.63-2.77,7.06-2.77,1.01,0,1.83.82,1.83,1.83v34.01c0,1.01-.82,1.83-1.83,1.83Z" style="fill:#021d49;"/><path d="m101.8,91.25c-1.01,0-1.83-.82-1.83-1.83v-31.93c-1.12.33-1.96.98-3,1.77-1.85,1.41-4.15,3.16-8.56,3.16s-6.72-1.75-8.56-3.16c-1.04-.79-1.89-1.44-3-1.77v31.93c0,1.01-.82,1.83-1.83,1.83s-1.83-.82-1.83-1.83v-34.01c0-1.01.82-1.83,1.83-1.83,3.42,0,5.35,1.47,7.06,2.77,1.7,1.29,3.16,2.41,6.34,2.41s4.65-1.12,6.34-2.41c1.7-1.3,3.63-2.77,7.06-2.77,1.01,0,1.83.82,1.83,1.83v34.01c0,1.01-.82,1.83-1.83,1.83Z" style="fill:#021d49;"/><path d="m128.6,91.25c-1.01,0-1.83-.82-1.83-1.83v-31.93c-1.12.33-1.96.98-3,1.77-1.85,1.41-4.15,3.16-8.56,3.16s-6.72-1.75-8.56-3.16c-1.04-.79-1.89-1.44-3-1.77v31.93c0,1.01-.82,1.83-1.83,1.83s-1.83-.82-1.83-1.83v-34.01c0-1.01.82-1.83,1.83-1.83,3.42,0,5.35,1.47,7.06,2.77,1.7,1.29,3.16,2.41,6.34,2.41s4.65-1.12,6.34-2.41c1.7-1.3,3.63-2.77,7.06-2.77,1.01,0,1.83.82,1.83,1.83v34.01c0,1.01-.82,1.83-1.83,1.83Z" style="fill:#021d49;"/><path d="m48.2,57.24c-1.01,0-1.83-.82-1.83-1.83v-31.93c-1.12.33-1.96.98-3,1.77-1.85,1.41-4.15,3.16-8.56,3.16s-6.72-1.75-8.56-3.16c-1.04-.79-1.89-1.44-3-1.77v31.93c0,1.01-.82,1.83-1.83,1.83s-1.83-.82-1.83-1.83V21.4c0-1.01.82-1.83,1.83-1.83,3.42,0,5.35,1.47,7.06,2.77,1.7,1.29,3.16,2.41,6.34,2.41s4.65-1.12,6.34-2.41c1.7-1.3,3.63-2.77,7.06-2.77,1.01,0,1.83.82,1.83,1.83v34.01c0,1.01-.82,1.83-1.83,1.83Z" style="fill:#021d49;"/><path d="m75,57.24c-1.01,0-1.83-.82-1.83-1.83v-31.93c-1.12.33-1.96.98-3,1.77-1.85,1.41-4.15,3.16-8.56,3.16s-6.72-1.75-8.56-3.16c-1.04-.79-1.89-1.44-3-1.77v31.93c0,1.01-.82,1.83-1.83,1.83s-1.83-.82-1.83-1.83V21.4c0-1.01.82-1.83,1.83-1.83,3.42,0,5.35,1.47,7.06,2.77,1.7,1.29,3.16,2.41,6.34,2.41s4.65-1.12,6.34-2.41c1.7-1.3,3.63-2.77,7.06-2.77,1.01,0,1.83.82,1.83,1.83v34.01c0,1.01-.82,1.83-1.83,1.83Z" style="fill:#021d49;"/><path d="m101.8,57.24c-1.01,0-1.83-.82-1.83-1.83v-31.93c-1.12.33-1.96.98-3,1.77-1.85,1.41-4.15,3.16-8.56,3.16s-6.72-1.75-8.56-3.16c-1.04-.79-1.89-1.44-3-1.77v31.93c0,1.01-.82,1.83-1.83,1.83s-1.83-.82-1.83-1.83V21.4c0-1.01.82-1.83,1.83-1.83,3.42,0,5.35,1.47,7.06,2.77,1.7,1.29,3.16,2.41,6.34,2.41s4.65-1.12,6.34-2.41c1.7-1.3,3.63-2.77,7.06-2.77,1.01,0,1.83.82,1.83,1.83v34.01c0,1.01-.82,1.83-1.83,1.83Z" style="fill:#021d49;"/><path d="m128.6,57.24c-1.01,0-1.83-.82-1.83-1.83v-31.93c-1.12.33-1.96.98-3,1.77-1.85,1.41-4.15,3.16-8.56,3.16s-6.72-1.75-8.56-3.16c-1.04-.79-1.89-1.44-3-1.77v31.93c0,1.01-.82,1.83-1.83,1.83s-1.83-.82-1.83-1.83V21.4c0-1.01.82-1.83,1.83-1.83,3.42,0,5.35,1.47,7.06,2.77,1.7,1.29,3.16,2.41,6.34,2.41s4.65-1.12,6.34-2.41c1.7-1.3,3.63-2.77,7.06-2.77,1.01,0,1.83.82,1.83,1.83v34.01c0,1.01-.82,1.83-1.83,1.83Z" style="fill:#021d49;"/></svg>