<?xml version="1.0" encoding="UTF-8"?><svg id="Layer_1" xmlns="http://www.w3.org/2000/svg" viewBox="0 0 150 150"><path d="m102.71,46.37h-55.42c-1.22,0-2.21-.99-2.21-2.21s.99-2.21,2.21-2.21h55.42c1.22,0,2.21.99,2.21,2.21s-.99,2.21-2.21,2.21Z" style="fill:#021d49;"/><path d="m139.67,116.79h-8.14c-.82,0-1.58-.46-1.96-1.18l-26.86-51.19-26.86,51.19c-.38.73-1.14,1.18-1.96,1.18h-8.14c-.77,0-1.49-.4-1.89-1.07-.4-.66-.43-1.49-.07-2.17l3.19-6.08c.57-1.08,1.9-1.5,2.99-.93,1.08.57,1.5,1.9.93,2.99l-1.49,2.84h3.14l28.2-53.73c.38-.73,1.14-1.18,1.96-1.18s1.58.46,1.96,1.18l28.2,53.73h3.14l-35.26-67.18c-.57-1.08-.15-2.42.93-2.98,1.08-.57,2.42-.15,2.99.93l36.96,70.42c.36.69.33,1.51-.07,2.17-.4.66-1.12,1.07-1.89,1.07Z" style="fill:#021d49;"/><path d="m113.04,66.04c-1.22,0-2.21-.99-2.21-2.21v-26.2h-16.23v6.52c0,1.22-.99,2.21-2.21,2.21s-2.21-.99-2.21-2.21v-8.73c0-1.22.99-2.21,2.21-2.21h20.65c1.22,0,2.21.99,2.21,2.21v28.41c0,1.22-.99,2.21-2.21,2.21Z" style="fill:#021d49;"/><path d="m10.33,116.79c-.35,0-.7-.08-1.03-.25-1.08-.57-1.5-1.9-.93-2.98l13.61-25.93c.57-1.08,1.9-1.5,2.99-.93,1.08.57,1.5,1.9.93,2.98l-13.61,25.93c-.4.75-1.16,1.18-1.96,1.18Z" style="fill:#021d49;"/><path d="m38.99,62.18c-.35,0-.7-.08-1.03-.25-1.08-.57-1.5-1.9-.93-2.98l8.3-15.81c.57-1.08,1.9-1.5,2.99-.93,1.08.57,1.5,1.9.93,2.98l-8.3,15.81c-.4.75-1.16,1.18-1.96,1.18Z" style="fill:#021d49;"/><path d="m134.2,116.79h-46.62c-1.22,0-2.21-.99-2.21-2.21s.99-2.21,2.21-2.21h46.62c1.22,0,2.21.99,2.21,2.21s-.99,2.21-2.21,2.21Z" style="fill:#021d49;"/><path d="m53.99,103.52c-.41,0-.83-.12-1.21-.36l-30.05-19.6c-1.02-.67-1.31-2.04-.64-3.06.67-1.02,2.04-1.31,3.06-.64l30.05,19.6c1.02.67,1.31,2.04.64,3.06-.42.65-1.13,1-1.85,1Z" style="fill:#021d49;"/><path d="m63.27,81.2c-.34,0-.69-.08-1.01-.25l-31.73-16.38c-1.08-.56-1.51-1.89-.95-2.98.56-1.08,1.89-1.51,2.98-.95l31.73,16.38c1.08.56,1.51,1.89.95,2.98-.39.76-1.17,1.2-1.97,1.2Z" style="fill:#021d49;"/><path d="m61.3,105.42c-.32,0-.63,0-.95-.02-.22-.01-.44-.03-.65-.04-8.97-.74-15.66-8.65-14.91-17.61.62-7.42,7.15-12.95,14.57-12.34,6.18.51,10.79,5.95,10.27,12.13-.21,2.51-1.38,4.79-3.31,6.42-1.92,1.63-4.37,2.41-6.88,2.2-1.22-.1-2.12-1.17-2.02-2.39.1-1.22,1.17-2.12,2.39-2.02,1.34.11,2.63-.3,3.65-1.17,1.02-.87,1.65-2.08,1.76-3.41.31-3.75-2.48-7.05-6.23-7.36-4.99-.42-9.38,3.31-9.8,8.3-.54,6.54,4.34,12.3,10.87,12.84.17.01.34.03.51.03,5.81.29,11.37-2.95,14.16-8.25l26.03-49.59c.57-1.08,1.9-1.5,2.99-.93,1.08.57,1.5,1.9.93,2.98l-26.03,49.59c-3.43,6.54-10.17,10.64-17.35,10.64Z" style="fill:#021d49;"/><path d="m23.94,83.92c-.39,0-.79-.1-1.14-.32-4.64-2.81-7.24-7.91-6.79-13.31.26-3.14,1.73-5.99,4.13-8.02,2.4-2.04,5.45-3.01,8.59-2.75,1.36.11,2.66.5,3.85,1.14,1.08.58,1.48,1.92.9,2.99-.58,1.08-1.92,1.48-2.99.9-.66-.35-1.37-.56-2.13-.63-1.96-.16-3.87.45-5.37,1.72-1.5,1.27-2.42,3.05-2.58,5.01-.31,3.72,1.48,7.23,4.68,9.16,1.04.63,1.38,1.99.74,3.04-.42.69-1.15,1.06-1.89,1.06Z" style="fill:#021d49;"/><path d="m65.76,116.79H10.33c-1.22,0-2.21-.99-2.21-2.21s.99-2.21,2.21-2.21h55.42c1.22,0,2.21.99,2.21,2.21s-.99,2.21-2.21,2.21Z" style="fill:#021d49;"/></svg>