<?xml version="1.0" encoding="UTF-8"?><svg id="Layer_1" xmlns="http://www.w3.org/2000/svg" viewBox="0 0 150 150"><path d="m22.14,129.36c-1,0-1.81-.81-1.81-1.81V59.89c0-1,.81-1.81,1.81-1.81s1.81.81,1.81,1.81v67.67c0,1-.81,1.81-1.81,1.81Z" style="fill:#021d49;"/><path d="m75,129.36c-1,0-1.81-.81-1.81-1.81v-37.15c0-1,.81-1.81,1.81-1.81s1.81.81,1.81,1.81v37.15c0,1-.81,1.81-1.81,1.81Z" style="fill:#021d49;"/><path d="m38.52,93.91c-.31,0-.62-.08-.9-.24l-5.89-3.4c-.86-.5-1.16-1.6-.66-2.47.5-.86,1.6-1.16,2.47-.66l5.89,3.4c.86.5,1.16,1.6.66,2.47-.33.58-.94.9-1.57.9Z" style="fill:#021d49;"/><path d="m32.63,90.51c-1,0-1.81-.81-1.81-1.81v-11.15c0-1,.81-1.81,1.81-1.81s1.81.81,1.81,1.81v11.15c0,1-.81,1.81-1.81,1.81Z" style="fill:#021d49;"/><path d="m50.3,100.71c-.31,0-.62-.08-.9-.24l-5.89-3.4c-.86-.5-1.16-1.6-.66-2.47.5-.86,1.6-1.16,2.47-.66l5.89,3.4c.86.5,1.16,1.6.66,2.47-.33.58-.94.9-1.57.9Z" style="fill:#021d49;"/><path d="m44.41,97.31c-1,0-1.81-.81-1.81-1.81v-11.15c0-1,.81-1.81,1.81-1.81s1.81.81,1.81,1.81v11.15c0,1-.81,1.81-1.81,1.81Z" style="fill:#021d49;"/><path d="m62.08,107.52c-.31,0-.62-.08-.9-.24l-5.89-3.4c-.86-.5-1.16-1.6-.66-2.47.5-.86,1.6-1.16,2.47-.66l5.89,3.4c.86.5,1.16,1.6.66,2.47-.33.58-.94.9-1.57.9Z" style="fill:#021d49;"/><path d="m56.19,104.12c-1,0-1.81-.81-1.81-1.81v-11.15c0-1,.81-1.81,1.81-1.81s1.81.81,1.81,1.81v11.15c0,1-.81,1.81-1.81,1.81Z" style="fill:#021d49;"/><path d="m38.52,115.76c-.31,0-.62-.08-.9-.24l-5.89-3.4c-.86-.5-1.16-1.6-.66-2.47.5-.86,1.6-1.16,2.47-.66l5.89,3.4c.86.5,1.16,1.6.66,2.47-.33.58-.94.9-1.57.9Z" style="fill:#021d49;"/><path d="m32.63,112.36c-1,0-1.81-.81-1.81-1.81v-11.15c0-1,.81-1.81,1.81-1.81s1.81.81,1.81,1.81v11.15c0,1-.81,1.81-1.81,1.81Z" style="fill:#021d49;"/><path d="m50.3,122.56c-.31,0-.62-.08-.9-.24l-5.89-3.4c-.86-.5-1.16-1.6-.66-2.47.5-.86,1.6-1.16,2.47-.66l5.89,3.4c.86.5,1.16,1.6.66,2.47-.33.58-.94.9-1.57.9Z" style="fill:#021d49;"/><path d="m44.41,119.16c-1,0-1.81-.81-1.81-1.81v-11.15c0-1,.81-1.81,1.81-1.81s1.81.81,1.81,1.81v11.15c0,1-.81,1.81-1.81,1.81Z" style="fill:#021d49;"/><path d="m62.08,129.36c-.31,0-.62-.08-.9-.24l-5.89-3.4c-.86-.5-1.16-1.6-.66-2.47.5-.86,1.6-1.16,2.47-.66l5.89,3.4c.86.5,1.16,1.6.66,2.47-.33.58-.94.9-1.57.9Z" style="fill:#021d49;"/><path d="m56.19,125.96c-1,0-1.81-.81-1.81-1.81v-11.15c0-1,.81-1.81,1.81-1.81s1.81.81,1.81,1.81v11.15c0,1-.81,1.81-1.81,1.81Z" style="fill:#021d49;"/><path d="m32.63,129.36c-1,0-1.81-.81-1.81-1.81v-6.31c0-1,.81-1.81,1.81-1.81s1.81.81,1.81,1.81v6.31c0,1-.81,1.81-1.81,1.81Z" style="fill:#021d49;"/><path d="m111.48,93.91c-.62,0-1.23-.32-1.57-.9-.5-.86-.2-1.97.66-2.47l5.89-3.4c.86-.5,1.97-.2,2.47.66.5.86.2,1.97-.66,2.47l-5.89,3.4c-.28.16-.6.24-.9.24Z" style="fill:#021d49;"/><path d="m117.37,90.51c-1,0-1.81-.81-1.81-1.81v-11.15c0-1,.81-1.81,1.81-1.81s1.81.81,1.81,1.81v11.15c0,1-.81,1.81-1.81,1.81Z" style="fill:#021d49;"/><path d="m99.7,100.72c-.62,0-1.23-.32-1.57-.9-.5-.86-.2-1.97.66-2.47l5.89-3.4c.86-.5,1.97-.2,2.47.66.5.86.2,1.97-.66,2.47l-5.89,3.4c-.28.16-.6.24-.9.24Z" style="fill:#021d49;"/><path d="m105.59,97.31c-1,0-1.81-.81-1.81-1.81v-11.15c0-1,.81-1.81,1.81-1.81s1.81.81,1.81,1.81v11.15c0,1-.81,1.81-1.81,1.81Z" style="fill:#021d49;"/><path d="m87.92,107.52c-.62,0-1.23-.32-1.57-.9-.5-.86-.2-1.97.66-2.47l5.89-3.4c.86-.5,1.97-.2,2.47.66.5.86.2,1.97-.66,2.47l-5.89,3.4c-.28.16-.6.24-.9.24Z" style="fill:#021d49;"/><path d="m93.81,104.12c-1,0-1.81-.81-1.81-1.81v-11.15c0-1,.81-1.81,1.81-1.81s1.81.81,1.81,1.81v11.15c0,1-.81,1.81-1.81,1.81Z" style="fill:#021d49;"/><path d="m111.48,115.76c-.62,0-1.23-.32-1.57-.9-.5-.86-.2-1.97.66-2.47l5.89-3.4c.86-.5,1.97-.2,2.47.66.5.86.2,1.97-.66,2.47l-5.89,3.4c-.28.16-.6.24-.9.24Z" style="fill:#021d49;"/><path d="m117.37,112.36c-1,0-1.81-.81-1.81-1.81v-11.15c0-1,.81-1.81,1.81-1.81s1.81.81,1.81,1.81v11.15c0,1-.81,1.81-1.81,1.81Z" style="fill:#021d49;"/><path d="m99.7,122.56c-.62,0-1.23-.32-1.57-.9-.5-.86-.2-1.97.66-2.47l5.89-3.4c.86-.5,1.97-.2,2.47.66.5.86.2,1.97-.66,2.47l-5.89,3.4c-.28.16-.6.24-.9.24Z" style="fill:#021d49;"/><path d="m105.59,119.16c-1,0-1.81-.81-1.81-1.81v-11.15c0-1,.81-1.81,1.81-1.81s1.81.81,1.81,1.81v11.15c0,1-.81,1.81-1.81,1.81Z" style="fill:#021d49;"/><path d="m87.92,129.36c-.62,0-1.23-.32-1.57-.9-.5-.86-.2-1.97.66-2.47l5.89-3.4c.86-.5,1.97-.2,2.47.66.5.86.2,1.97-.66,2.47l-5.89,3.4c-.28.16-.6.24-.9.24Z" style="fill:#021d49;"/><path d="m93.81,125.96c-1,0-1.81-.81-1.81-1.81v-11.15c0-1,.81-1.81,1.81-1.81s1.81.81,1.81,1.81v11.15c0,1-.81,1.81-1.81,1.81Z" style="fill:#021d49;"/><path d="m117.37,129.36c-1,0-1.81-.81-1.81-1.81v-6.31c0-1,.81-1.81,1.81-1.81s1.81.81,1.81,1.81v6.31c0,1-.81,1.81-1.81,1.81Z" style="fill:#021d49;"/><path d="m63.74,61.89c-.37,0-.74-.11-1.06-.35-1.88-1.37-2.94-3.5-2.92-5.86.04-4.01,2.66-9.1,6.97-10.68,1.87-.69,3.72-.53,5.07.43.81.58,1,1.71.42,2.52-.58.81-1.71,1-2.52.42-.36-.25-1-.25-1.73.02-2.68.98-4.58,4.65-4.6,7.32-.01,1.19.5,2.22,1.44,2.9.81.59.98,1.72.4,2.52-.35.49-.9.74-1.46.74Z" style="fill:#021d49;"/><path d="m93.28,61.72c-.31,0-.62-.08-.9-.24l-22.53-13.01c-.86-.5-1.16-1.6-.66-2.47.5-.86,1.6-1.16,2.47-.66l22.53,13.01c.86.5,1.16,1.6.66,2.47-.33.58-.94.9-1.57.9Z" style="fill:#021d49;"/><path d="m86.32,74.98c-.31,0-.62-.08-.9-.24l-22.53-13.05c-.86-.5-1.16-1.61-.66-2.47.5-.86,1.61-1.16,2.47-.66l22.53,13.05c.86.5,1.16,1.61.66,2.47-.34.58-.94.9-1.57.9Z" style="fill:#021d49;"/><path d="m89.58,75.84c-1.64,0-3.24-.47-4.53-1.39-1.87-1.33-2.88-3.45-2.76-5.83.2-3.98,2.7-9.04,6.97-10.61,1.85-.68,3.69-.53,5.03.4,1.28.89,1.99,2.38,1.99,4.19,0,2.8-1.83,5.98-4.26,7.38-1.28.74-2.63.81-3.71.19-.86-.5-1.16-1.6-.66-2.47.47-.82,1.48-1.13,2.32-.74.05-.02.13-.05.24-.11,1.28-.74,2.45-2.77,2.45-4.25,0-.34-.06-.96-.44-1.23-.36-.25-1-.24-1.72.02-2.58.95-4.47,4.59-4.61,7.4-.07,1.45.64,2.27,1.25,2.7,1.14.81,2.85.95,4.37.35,1.43-.73,21.91-12.6,35.43-20.46.86-.5,1.97-.21,2.47.65.5.86.21,1.97-.65,2.47-10.48,6.09-34.95,20.3-35.85,20.67-1.08.44-2.22.65-3.33.65Zm1.97-4s0,0,0,0c0,0,0,0,0,0Zm-1.44-4.79s0,0,0,0c0,0,0,0,0,0Z" style="fill:#021d49;"/><path d="m46.93,75.82c-.62,0-1.23-.32-1.56-.9-.5-.86-.21-1.97.65-2.47l14.21-8.27c.86-.5,1.97-.21,2.47.65.5.86.21,1.97-.65,2.47l-14.21,8.27c-.29.17-.6.25-.91.25Z" style="fill:#021d49;"/><path d="m127.85,129.36c-1,0-1.81-.81-1.81-1.81V52.96c0-1,.81-1.81,1.81-1.81s1.81.81,1.81,1.81v74.6c0,1-.81,1.81-1.81,1.81Z" style="fill:#021d49;"/><path d="m22.14,61.7c-1,0-1.81-.81-1.81-1.81v-6.93c0-1,.81-1.81,1.81-1.81s1.81.81,1.81,1.81v6.93c0,1-.81,1.81-1.81,1.81Z" style="fill:#021d49;"/><path d="m127.85,54.77c-.31,0-.62-.08-.9-.24l-28.51-16.46c-.86-.5-1.16-1.6-.66-2.47.5-.86,1.6-1.16,2.47-.66l28.51,16.46c.86.5,1.16,1.6.66,2.47-.33.58-.94.9-1.57.9Z" style="fill:#021d49;"/><path d="m46.93,75.82c-1,0-1.81-.81-1.81-1.81v-5.88l-23.87-13.61c-.56-.32-.91-.92-.91-1.56s.34-1.25.9-1.57l52.85-30.52c.56-.32,1.25-.32,1.81,0l24.34,14.05c.86.5,1.16,1.6.66,2.47-.5.86-1.6,1.16-2.47.66l-23.44-13.53-49.22,28.42,22.05,12.57c.56.32.91.92.91,1.57v6.93c0,1-.81,1.81-1.81,1.81Z" style="fill:#021d49;"/><path d="m46.93,68.89c-.62,0-1.23-.32-1.56-.9-.5-.86-.21-1.97.65-2.47l10.82-6.32c.86-.5,1.97-.21,2.47.65.5.86.21,1.97-.65,2.47l-10.82,6.32c-.29.17-.6.25-.91.25Z" style="fill:#021d49;"/><path d="m81.02,49c-.62,0-1.23-.32-1.56-.9-.5-.86-.21-1.97.65-2.47l18.32-10.69c.86-.5,1.97-.21,2.47.65.5.86.21,1.97-.65,2.47l-18.32,10.69c-.29.17-.6.25-.91.25Z" style="fill:#021d49;"/></svg>