<svg xmlns="http://www.w3.org/2000/svg" data-name="Icon ionic-ios-checkbox-outline" width="31.05" height="31.05"><path data-name="Path 11088" d="M28.463 0H2.588A2.585 2.585 0 0 0 0 2.588v25.875a2.585 2.585 0 0 0 2.588 2.587h25.875a2.585 2.585 0 0 0 2.588-2.588V2.588A2.585 2.585 0 0 0 28.463 0Zm.323 28.139a.649.649 0 0 1-.647.647H2.911a.649.649 0 0 1-.647-.647V2.911a.649.649 0 0 1 .647-.647h25.228a.649.649 0 0 1 .647.647Z" fill="#00a7e1"/><path data-name="Path 11089" d="m24.226 10.423-1.425-1.467a.306.306 0 0 0-.226-.1.294.294 0 0 0-.226.1l-9.865 9.938-3.59-3.59a.313.313 0 0 0-.453 0l-1.44 1.442a.322.322 0 0 0 0 .461l4.528 4.528a1.432 1.432 0 0 0 .946.461 1.5 1.5 0 0 0 .938-.445h.008l10.813-10.867a.346.346 0 0 0-.008-.461Z" fill="#00a7e1"/></svg>