<svg xmlns="http://www.w3.org/2000/svg" width="180.271" height="62.49" viewBox="0 0 180.271 62.49">
  <g id="RUSA_Logo_FullColor" transform="translate(-99.9 -61)">
    <g id="Group_11041" data-name="Group 11041" transform="translate(99.9 61)">
      <g id="Group_11038" data-name="Group 11038">
        <g id="Group_11035" data-name="Group 11035">
          <g id="Group_11033" data-name="Group 11033">
            <path id="Path_9840" data-name="Path 9840" d="M125.441,81.167H118l-3.994-4.756H105.47v4.756H99.9V71.99h15.629c1.723,0,3.059-.775,3.059-2.017,0-1.4-1.149-2.1-3.059-2.1H99.9l3.62-4.675h11.542c4.074,0,9.231,1.282,9.231,6.412a5.625,5.625,0,0,1-4.7,5.691,22.951,22.951,0,0,1,2.525,2.364Z" transform="translate(-99.9 -62.906)" fill="#f32735"/>
            <path id="Path_9841" data-name="Path 9841" d="M333.163,70.257c0,6.412-4.408,9.284-13.131,9.284-8.75,0-13.131-2.872-13.131-9.284S311.282,61,320.031,61C328.754,61,333.163,63.845,333.163,70.257Zm-5.53,0c0-3.861-2.017-4.6-7.6-4.6s-7.6.721-7.6,4.6,2.017,4.622,7.6,4.622S327.632,74.131,327.632,70.257Z" transform="translate(-279.248 -61)" fill="#f32735"/>
            <path id="Path_9842" data-name="Path 9842" d="M556.662,70.257c0,6.412-4.408,9.284-13.131,9.284-8.75,0-13.131-2.872-13.131-9.284S534.782,61,543.531,61C552.254,61,556.662,63.845,556.662,70.257Zm-5.53,0c0-3.861-2.017-4.6-7.6-4.6s-7.6.721-7.6,4.6,2.017,4.622,7.6,4.622S551.132,74.131,551.132,70.257Z" transform="translate(-472.892 -61)" fill="#f32735"/>
            <path id="Path_9843" data-name="Path 9843" d="M778.331,63.2l-3.593,4.675H763.784v2.338h13.532l-3.38,4.382H763.784v6.572H758.2V63.2Z" transform="translate(-670.262 -62.906)" fill="#f32735"/>
            <path id="Path_9844" data-name="Path 9844" d="M939.157,81.167H933.6V63.2h5.557Z" transform="translate(-822.232 -62.906)" fill="#f32735"/>
            <path id="Path_9845" data-name="Path 9845" d="M1026.657,78.58l-11.007-9.885V79.247H1010.6V64.353c0-2.391,1.456-3.353,3.032-3.353a3.072,3.072,0,0,1,2.231.962l11.007,9.885V61.294h5.076V76.162c0,2.391-1.456,3.38-3.059,3.38A2.881,2.881,0,0,1,1026.657,78.58Z" transform="translate(-888.946 -61)" fill="#f32735"/>
            <path id="Path_9846" data-name="Path 9846" d="M1212.262,70.033h11.488V81.254h-12.33c-6.225,0-10.82-3.941-10.82-9.15,0-5.263,4.6-8.8,10.82-8.8h12.864l-3.593,4.675h-9.257c-3.006,0-5.29,1.83-5.29,4.382,0,2.6,2.2,4.3,5.29,4.3h6.786v-2.6h-9.284Z" transform="translate(-1053.565 -62.993)" fill="#f32735"/>
          </g>
          <g id="Group_11034" data-name="Group 11034" transform="translate(0.013 27.799)">
            <path id="Path_9847" data-name="Path 9847" d="M144.777,288.336q0,15.449-21.266,15.456c-16.431,0-23.511-5.156-23.511-15.456V269.1h10.513v19.236c0,5.049,2.137,6.679,13.011,6.679,8.109,0,10.66-1.884,10.66-6.679V269.1H144.79v19.236Z" transform="translate(-100 -269.1)" fill="#021d49"/>
            <path id="Path_9848" data-name="Path 9848" d="M505.31,282.812c8.309,0,12.8,3.112,12.8,9.337,0,6.986-4.235,11.168-14.641,11.168H471.7l6.786-8.776h25.808c2.5,0,3.62-.708,3.62-2.5,0-1.737-1.122-2.445-3.62-2.445H485.726c-8.776,0-12.8-3.927-12.8-9.792,0-6.425,4.288-10.607,14.641-10.607h29.642l-6.786,8.87H486.741c-2.445,0-3.62.615-3.62,2.351s1.176,2.391,3.62,2.391H505.31Z" transform="translate(-422.047 -269.187)" fill="#021d49"/>
          </g>
        </g>
        <g id="Group_11037" data-name="Group 11037" transform="translate(98.05 28.76)">
          <rect id="Rectangle_6185" data-name="Rectangle 6185" width="4.849" height="4.849" transform="translate(27.652 21.787)" fill="#021d49"/>
          <rect id="Rectangle_6186" data-name="Rectangle 6186" width="4.849" height="4.849" transform="translate(34.184 21.787)" fill="#021d49"/>
          <rect id="Rectangle_6187" data-name="Rectangle 6187" width="4.849" height="4.849" transform="translate(27.652 28.32)" fill="#021d49"/>
          <rect id="Rectangle_6188" data-name="Rectangle 6188" width="4.849" height="4.849" transform="translate(34.184 28.32)" fill="#021d49"/>
          <g id="Group_11036" data-name="Group 11036">
            <path id="Path_9849" data-name="Path 9849" d="M856.769,276.3,833.9,309.469h16.364l14.694-21.293Zm-8.563,29.949-2.164-1.135-2.164,1.135.414-2.418-1.75-1.71,2.418-.347,1.082-2.191,1.082,2.191,2.418.347-1.75,1.71Zm5.156-7.467-2.164-1.135-2.164,1.135.414-2.418-1.75-1.71,2.418-.347,1.082-2.191,1.082,2.191,2.418.347-1.75,1.71Zm2.979-8.6-2.164,1.135.414-2.418-1.75-1.71,2.418-.347,1.082-2.191,1.082,2.191,2.418.347-1.75,1.71.414,2.418Z" transform="translate(-833.9 -276.3)" fill="#021d49"/>
          </g>
        </g>
      </g>
      <g id="Group_11040" data-name="Group 11040" transform="translate(124.86 27.799)">
        <g id="Group_11039" data-name="Group 11039">
          <path id="Path_9850" data-name="Path 9850" d="M1059.674,272.894l-2.6-3.794H1034.6l2.6,3.794Z" transform="translate(-1034.6 -269.1)" fill="#f32735"/>
          <path id="Path_9851" data-name="Path 9851" d="M1076.3,329.794h22.455l-2.6-3.794H1073.7Z" transform="translate(-1068.477 -318.399)" fill="#f32735"/>
          <path id="Path_9852" data-name="Path 9852" d="M1115.3,386.694h22.455l-2.6-3.794H1112.7Z" transform="translate(-1102.267 -367.698)" fill="#f32735"/>
          <path id="Path_9853" data-name="Path 9853" d="M1154.3,443.594h22.455l-2.6-3.794H1151.7Z" transform="translate(-1136.057 -416.997)" fill="#f32735"/>
          <path id="Path_9854" data-name="Path 9854" d="M1193.251,500.427h22.469l-2.565-3.727H1190.7Z" transform="translate(-1169.848 -466.296)" fill="#f32735"/>
        </g>
      </g>
    </g>
    <g id="Group_11042" data-name="Group 11042" transform="translate(273.785 119.683)">
      <path id="Path_9855" data-name="Path 9855" d="M1403.991,500.3v.521h-.868v2.712h-.655v-2.712h-.868V500.3Z" transform="translate(-1401.6 -500.3)" fill="#f32735"/>
      <path id="Path_9856" data-name="Path 9856" d="M1426.44,500.3v3.233h-.655v-2.111l-.868,2.111h-.494l-.868-2.111v2.111h-.655V500.3h.735l1.029,2.4,1.029-2.4Z" transform="translate(-1420.055 -500.3)" fill="#f32735"/>
    </g>
  </g>
</svg>
