<svg xmlns="http://www.w3.org/2000/svg" width="126.731" height="52.6" viewBox="0 0 126.731 52.6">
  <g id="RUSA_Logo_House_FullColor_Reversed" transform="translate(-46.4 -46.4)">
    <g id="Group_2273" data-name="Group 2273" transform="translate(46.4 46.4)">
      <g id="Group_2271" data-name="Group 2271" transform="translate(0 0)">
        <g id="Group_2268" data-name="Group 2268" transform="translate(0 1.475)">
          <g id="Group_2267" data-name="Group 2267">
            <rect id="Rectangle_308" data-name="Rectangle 308" width="7.471" height="7.471" transform="translate(42.62 33.578)" fill="#fff"/>
            <rect id="Rectangle_309" data-name="Rectangle 309" width="7.471" height="7.471" transform="translate(52.683 33.578)" fill="#fff"/>
            <rect id="Rectangle_310" data-name="Rectangle 310" width="7.471" height="7.471" transform="translate(42.62 43.64)" fill="#fff"/>
            <rect id="Rectangle_311" data-name="Rectangle 311" width="7.471" height="7.471" transform="translate(52.683 43.64)" fill="#fff"/>
            <g id="Group_2266" data-name="Group 2266">
              <path id="Path_675" data-name="Path 675" d="M81.646,57.1,46.4,108.211H71.625L94.272,75.378ZM68.441,103.277l-3.336-1.751-3.336,1.751.634-3.722-2.7-2.633,3.735-.551,1.668-3.377,1.668,3.377,3.735.538-2.7,2.633Zm7.953-11.524L73.058,90l-3.336,1.751.634-3.722-2.7-2.633,3.735-.538,1.668-3.377,1.668,3.377,3.735.538-2.7,2.633ZM81,78.493l-3.336,1.751.634-3.722-2.7-2.633,3.735-.538L81,69.974l1.668,3.377,3.735.538-2.7,2.633.634,3.722Z" transform="translate(-46.4 -57.1)" fill="#fff"/>
            </g>
          </g>
        </g>
        <g id="Group_2270" data-name="Group 2270" transform="translate(41.325)">
          <g id="Group_2269" data-name="Group 2269">
            <path id="Path_676" data-name="Path 676" d="M384.837,52.244,380.826,46.4H346.2l4.025,5.844Z" transform="translate(-346.2 -46.4)" fill="#f32735"/>
            <path id="Path_677" data-name="Path 677" d="M408.525,137.158h34.612l-4.011-5.858H404.5Z" transform="translate(-396.464 -119.597)" fill="#f32735"/>
            <path id="Path_678" data-name="Path 678" d="M466.811,222.158h34.626l-4.025-5.858H462.8Z" transform="translate(-446.728 -192.881)" fill="#f32735"/>
            <path id="Path_679" data-name="Path 679" d="M525.111,307.158h34.626l-4.025-5.858H521.1Z" transform="translate(-496.992 -266.164)" fill="#f32735"/>
            <path id="Path_680" data-name="Path 680" d="M583.242,392.034h34.626l-3.942-5.734H579.3Z" transform="translate(-547.169 -339.448)" fill="#f32735"/>
          </g>
        </g>
      </g>
      <g id="Group_2272" data-name="Group 2272" transform="translate(116.875 47.596)">
        <path id="Path_681" data-name="Path 681" d="M897.98,391.7v.813h-1.337v4.19h-1.006v-4.19H894.3V391.7Z" transform="translate(-894.3 -391.7)" fill="#f32735"/>
        <path id="Path_682" data-name="Path 682" d="M931.659,391.7v4.99h-1.006v-3.253l-1.337,3.253h-.758l-1.351-3.253v3.253H926.2V391.7h1.13l1.585,3.708L930.5,391.7Z" transform="translate(-921.803 -391.7)" fill="#f32735"/>
      </g>
    </g>
  </g>
</svg>
